<svg width="1440" height="926" viewBox="0 0 1440 926" fill="none" xmlns="http://www.w3.org/2000/svg">
<rect width="1440" height="926" fill="#A9ECFD"/>
<circle cx="227.438" cy="145.104" r="39.8865" fill="#FEE42A"/>
<circle r="44.3136" transform="matrix(-1 0 0 1 1438.85 474.314)" fill="#57BA54"/>
<circle r="82.2358" transform="matrix(-1 0 0 1 1412 544.619)" fill="#57BA54"/>
<circle r="64.766" transform="matrix(-1 0 0 1 1329.77 603.845)" fill="#57BA54"/>
<path d="M333.111 571.911C35.7356 570.631 -72.7514 663.206 -72.7514 663.206C-94.7792 676.175 -91.1079 843.805 -86.5188 926H1529.22V530.529C1529.22 530.529 1311.7 607.746 1191.65 628.65C1071.59 649.554 630.487 573.19 333.111 571.911Z" fill="#6BD068"/>
<ellipse cx="548.184" cy="740.146" rx="61.1027" ry="11.0324" fill="#65C966"/>
<ellipse cx="334.806" cy="667.21" rx="37.9222" ry="11.5045" fill="#65C966"/>
<ellipse cx="304.621" cy="786.822" rx="72.1351" ry="11.8811" fill="#65C966"/>
<ellipse cx="738.863" cy="686.304" rx="37.9222" ry="11.5045" fill="#65C966"/>
<ellipse cx="965.719" cy="739.297" rx="95.0486" ry="11.8811" fill="#65C966"/>
<circle r="22.2874" transform="matrix(-1 0 0 1 404.709 174.149)" fill="white"/>
<circle r="32.5738" transform="matrix(-1 0 0 1 363.563 151.861)" fill="white"/>
<circle r="32.5738" transform="matrix(-1 0 0 1 330.99 129.574)" fill="white"/>
<circle r="38.5743" transform="matrix(-1 0 0 1 283.843 157.861)" fill="white"/>
<rect width="128.581" height="37.7171" transform="matrix(-1 0 0 1 408.138 158.719)" fill="white"/>
<circle cx="1131.52" cy="77.1487" r="22.2874" fill="white"/>
<circle cx="1172.67" cy="54.8609" r="32.5738" fill="white"/>
<circle cx="1205.24" cy="32.5738" r="32.5738" fill="white"/>
<circle cx="1252.39" cy="60.8614" r="38.5743" fill="white"/>
<rect x="1128.09" y="61.7188" width="128.581" height="37.7171" fill="white"/>
<circle cx="172.017" cy="209.601" r="15.0171" fill="white"/>
<circle cx="199.741" cy="194.585" r="21.9481" fill="white"/>
<circle cx="221.69" cy="179.567" r="21.9481" fill="white"/>
<circle cx="253.456" cy="198.628" r="25.9912" fill="white"/>
<rect x="169.706" y="199.205" width="86.6374" height="25.4136" fill="white"/>
<circle cx="116.055" cy="94.4146" r="15.0171" fill="white"/>
<circle cx="143.779" cy="79.3974" r="21.9481" fill="white"/>
<circle cx="165.728" cy="64.3808" r="21.9481" fill="white"/>
<circle cx="197.494" cy="83.4404" r="25.9912" fill="white"/>
<rect x="113.745" y="84.0186" width="86.6374" height="25.4136" fill="white"/>
<circle cx="1271.93" cy="109.087" r="9.93949" fill="white"/>
<circle cx="1290.28" cy="99.148" r="14.5269" fill="white"/>
<circle cx="1304.81" cy="89.2086" r="14.5269" fill="white"/>
<circle cx="1325.83" cy="101.824" r="17.203" fill="white"/>
<rect x="1270.4" y="102.206" width="57.3432" height="16.8207" fill="white"/>
<path fill-rule="evenodd" clip-rule="evenodd" d="M83.1787 90.4121C83.2014 90.4122 83.2241 90.4122 83.2468 90.4122C83.2695 90.4122 83.2922 90.4122 83.3149 90.4121H151.709V90.2675C157.592 89.3591 162.096 84.2736 162.096 78.136C162.096 71.3562 156.6 65.8601 149.82 65.8601C148.138 65.8601 146.534 66.1985 145.074 66.811C145.091 66.4962 145.099 66.1793 145.099 65.8604C145.099 55.9515 137.066 47.9187 127.157 47.9187C126.854 47.9187 126.552 47.9262 126.251 47.9411C123.886 40.7969 117.153 35.6426 109.215 35.6426C100.651 35.6426 93.4891 41.6423 91.7021 49.6677C89.111 48.5425 86.2518 47.9187 83.2468 47.9187C71.5125 47.9187 62 57.4312 62 69.1655C62 80.1018 70.2628 89.1082 80.8861 90.2826V90.4121H83.1787Z" fill="white"/>
<circle r="44.3136" transform="matrix(-1 0 0 1 1435.79 783.314)" fill="#A3E975"/>
<circle r="82.2358" transform="matrix(-1 0 0 1 1401 865.499)" fill="#A3E975"/>
<circle r="64.766" transform="matrix(-1 0 0 1 1318.77 924.727)" fill="#A3E975"/>
<circle cx="-25.2137" cy="780.314" r="44.3136" fill="#A3E975"/>
<circle cx="9.35135" cy="866.526" r="93.3513" fill="#A3E975"/>
<circle cx="113.155" cy="909.393" r="64.766" fill="#A3E975"/>
</svg>
