<svg width="60" height="60" viewBox="0 0 60 60" fill="none" xmlns="http://www.w3.org/2000/svg">
<path d="M58.8883 37.6807V37.8635C57.4256 43.3488 51.9404 46.457 46.4551 44.9944L44.4439 44.4458L44.9925 46.457C46.4552 51.9423 43.1641 57.4274 37.8616 58.8902H37.6788C32.1935 60.353 26.7084 57.0618 25.2456 51.7593L24.697 49.7481L23.2343 51.2109C19.2117 55.2334 12.8123 55.2334 8.97268 51.2109L8.78987 51.0281C4.76734 47.0056 4.76734 40.6061 8.78987 36.5835L10.2526 35.1208L8.24143 34.5722C2.75614 33.1095 -0.352063 27.6243 1.11057 22.139V21.9562C2.57333 16.6539 8.05849 13.5455 13.5438 15.0083L15.3722 15.5568L15.0065 13.5456C13.5438 8.06036 16.8349 2.5752 22.1374 1.11244H22.3202C27.8055 -0.350318 33.2907 2.94083 34.7534 8.2433L35.302 10.2545L36.7647 8.79174C40.7873 4.76922 47.1868 4.76922 51.2093 8.79174L51.3921 8.97456C55.4146 12.9971 55.4146 19.3966 51.3921 23.2361L49.9293 24.6989L51.9405 25.2475C57.2427 26.7101 60.3511 32.1954 58.8883 37.6807Z" fill="#00BCD4"/>
</svg>
