<svg width="120" height="120" viewBox="0 0 120 120" fill="none" xmlns="http://www.w3.org/2000/svg">
    <path d="M32.3537 68.3956C32.3537 68.3956 29.2112 71.3035 28.1888 74.2198C27.1664 77.1277 25.4401 84.2089 24.7278 84.8374C24.0155 85.4659 21.6607 86.5637 20.7975 86.9576C19.9344 87.3514 18.0488 87.7453 18.0488 89.0778C18.0488 90.4102 19.7751 90.4186 22.7668 89.9409C25.7586 89.4632 26.8564 89.3124 27.4094 88.6001C27.9625 87.8878 31.0297 76.7254 31.499 76.0131C31.9682 75.3092 32.8398 73.3398 35.513 71.2951C38.1863 69.2503 41.2534 66.7363 41.2534 66.7363L36.217 63.5938L32.3537 68.3956Z" fill="#868686"/>
    <path d="M16.8173 41.5393C16.8173 41.5393 15.9123 39.4192 13.3563 40.0812C11.1105 40.6678 9.89535 44.0534 10.5239 45.6288C11.1524 47.2043 12.9206 47.9082 12.9206 47.9082L16.8173 41.5393Z" fill="#151413"/>
    <path d="M18.8615 17.3142C18.233 17.3813 17.2107 21.5211 14.219 20.9345C12.0066 20.4987 12.434 17.398 15.2413 15.8645C17.7554 14.4901 19.3727 15.0348 20.9063 15.5879C23.1689 16.4008 25.4316 18.8897 26.5294 21.7976C27.6272 24.7055 28.9345 28.3593 29.4792 32.6499C30.0323 37.016 29.7138 37.1752 29.7138 37.1752L27.5937 37.3344C27.5937 37.3344 27.9875 36.2366 27.1998 31.4767C26.7556 28.7867 25.6662 25.4011 24.6857 22.9038C23.5796 20.1132 21.3002 17.0461 18.8615 17.3142ZM36.7531 20.2305C36.1749 20.13 34.7084 22.158 32.6469 20.968C30.82 19.9121 31.6832 17.1969 34.3983 16.9288C36.133 16.7528 38.3202 18.0014 39.3929 19.0908C41.0438 20.7836 42.2673 23.5742 42.812 26.4067C43.3818 29.3314 43.3148 32.0717 42.1081 36.0439C40.8091 40.2926 39.2756 42.0608 39.2756 42.0608L37.6247 40.368C37.6247 40.368 38.7644 38.7925 39.9879 35.4153C40.8762 32.9516 41.4041 30.228 40.8175 27.0352C40.2644 24.077 38.404 20.5071 36.7531 20.2305Z" fill="#5D6265"/>
    <path d="M19.0626 38.2059C14.7552 40.2171 9.17402 46.7453 10.1713 54.2539C10.959 60.1535 15.2831 66.2877 23.6214 68.1733C31.9596 70.0588 37.0715 67.3855 37.0715 67.3855L41.2364 66.757L44.8567 71.7935L55.6335 71.8689L62.7147 68.961C62.7147 68.961 67.6506 75.9836 69.2764 78.4557C70.9021 80.9362 76.2989 85.3023 76.2989 85.3023C76.2989 85.3023 77.7571 86.3917 79.2571 87.2297C80.6734 88.0174 87.478 91.3192 93.671 91.6125C104.498 92.1321 107.758 89.1152 108.445 88.2521C108.78 87.8247 109.141 86.1403 109.283 85.2436C109.392 84.5397 110.549 77.8775 109.677 72.6566C108.973 68.4079 106.685 60.8574 98.1124 53.3069C89.5396 45.7564 77.8995 43.8709 70.5837 48.1196C63.6868 52.1253 61.3069 57.9495 61.3069 57.9495C61.3069 57.9495 59.1029 52.1169 53.1278 51.346C48.2506 50.7174 46.1304 53.2315 46.1304 53.2315C46.1304 53.2315 46.5997 42.6138 35.9067 37.812C28.088 34.3175 21.4174 37.1081 19.0626 38.2059Z" fill="#5D6265"/>
    <path d="M50.128 53.1387C47.7732 53.7756 46.8262 56.365 47.6894 57.9405C48.5525 59.516 50.1867 60.1612 52.0135 59.6668C54.3767 59.0383 55.3153 56.9181 54.7622 55.3427C54.2175 53.7756 52.1728 52.594 50.128 53.1387ZM70.4163 56.8427C71.5141 59.0467 74.7824 59.1054 77.8076 57.2366C81.1094 55.1918 81.2686 52.2839 80.087 50.8677C78.4612 48.9151 75.1343 49.2168 73.0896 50.5492C71.0448 51.8817 68.9833 53.9683 70.4163 56.8427Z" fill="#AFAFAE"/>
    <path d="M22.9937 45.4806C21.745 47.5924 21.4098 51.2881 24.5691 52.6792C28.1893 54.2714 30.4268 51.6735 31.2565 49.612C32.0442 47.6427 32.1699 44.299 29.3709 43.1593C26.4379 41.9693 24.2339 43.394 22.9937 45.4806Z" fill="#0A0A0A"/>
    <path d="M13.3977 55.8494C13.5066 56.9555 13.3977 57.6595 12.7692 58.0869C11.9898 58.6232 11.3697 58.355 11.3697 58.355C11.3697 58.355 10.3054 57.3243 10.054 55.2544C9.91156 54.1063 10.0959 52.4219 10.0959 52.4219C10.0959 52.4219 13.1966 53.8465 13.3977 55.8494Z" fill="#44484E"/>
    <path d="M43.524 61.2969C44.052 61.4729 43.172 66.7859 43.6413 67.6071C44.1106 68.4368 47.5968 70.6742 52.3734 70.0876C57.1501 69.501 59.2787 66.5177 60.0413 64.8417C60.5273 63.7858 60.9882 62.0678 61.3402 62.0092C61.6922 61.9505 64.1727 65.906 65.8822 68.0261C67.5918 70.1463 68.6561 71.8642 72.0751 75.2247C75.4942 78.5851 79.919 81.183 79.919 81.183C79.919 81.183 78.9971 82.3478 78.2513 83.2696L76.4831 85.4317C76.4831 85.4317 71.1031 81.3589 68.4214 77.9147C65.8068 74.5543 63.0581 71.2106 62.6391 71.9899C62.4296 72.3754 64.223 74.8392 64.9688 76.2051C66.0331 78.1493 67.1811 80.0432 67.6253 81.074C68.0527 82.0712 69.8796 86.7474 70.7846 89.8061C71.3712 91.809 71.7483 94.2057 71.9075 94.3481C72.3517 94.7336 75.1507 97.4739 75.863 98.1192C76.5669 98.7645 77.8658 100.181 76.9272 101.186C75.9803 102.192 73.9188 100.684 73.4495 100.332C72.9802 99.9796 68.4382 96.9963 67.9018 96.351C67.3739 95.7057 66.5945 92.0268 66.251 90.6274C65.8655 89.0603 63.5944 83.6635 63.2425 82.6076C62.8905 81.5433 60.762 77.8477 60.1754 77.0348C59.2619 75.7694 58.5831 74.085 57.1669 74.4956C56.4629 74.7051 55.8428 74.8224 55.2478 75.0822C55.1305 75.8532 55.0383 86.2613 54.8623 87.2083C54.6864 88.1552 54.1584 95.8231 54.2171 96.527C54.2757 97.2309 57.6362 101.656 58.0552 102.192C58.4658 102.72 58.5831 103.784 57.8792 104.371C57.1753 104.957 55.2227 104.605 54.6947 104.195C54.1668 103.784 50.6807 100.298 50.3873 99.3008C50.094 98.2952 50.1527 88.9765 50.1527 87.4429C50.1527 85.9093 50.5047 75.6437 50.27 75.1744C49.9181 75.1157 49.2979 75.1744 47.2951 74.7638C46.147 74.5291 45.2 73.9676 44.8481 73.9341C44.6721 74.261 41.605 81.602 41.01 83.7892C40.4234 85.968 37.9428 96.8873 37.6495 97.4153C37.3562 97.9432 34.993 100.097 32.4036 100.952C31.046 101.396 26.9146 102.427 26.0933 101.362C25.2637 100.298 28.3979 98.1779 30.0487 97.2896C31.6996 96.4013 33.6438 95.2281 33.8869 94.985C34.1215 94.7504 35.9484 84.1914 36.1914 82.9512C36.4344 81.7109 40.3815 72.3335 40.3228 71.9229C38.4959 70.3307 36.9624 67.4982 36.9624 67.4982C36.9624 67.4982 39.2334 66.6099 40.8843 65.0763C42.1832 63.8193 43.524 61.2969 43.524 61.2969Z" fill="#4D4D4D"/>
    <path d="M82.5922 82.8594C82.5922 82.8594 81.4609 84.3846 80.7402 85.2812C79.8184 86.4209 78.9888 87.1081 78.9888 87.1081C78.9888 87.1081 82.9777 89.0607 85.3661 89.9155C89.0701 91.2311 91.3411 91.3736 91.3411 91.3736C91.3411 91.3736 92.4724 90.0328 93.1847 89.1696C94.1317 88.0299 94.911 86.8064 94.911 86.8064C94.911 86.8064 90.8886 86.3204 88.0645 85.3483C84.2766 84.0577 82.5922 82.8594 82.5922 82.8594ZM98.4056 87.3009C98.4056 87.3009 97.3413 88.8763 96.5954 89.9406C96.0088 90.7786 95.1373 91.6334 95.1373 91.6334C95.1373 91.6334 100.844 91.8094 103.895 90.8373C105.571 90.3009 107.624 89.3959 108.37 88.4154C108.914 87.7115 109.35 84.7617 109.35 84.7617C109.35 84.7617 107.523 86.7645 103.844 87.1584C101.104 87.4601 98.4056 87.3009 98.4056 87.3009Z" fill="#4D4D4D"/>
    <path d="M94.9199 86.8025C94.9199 86.8025 95.297 86.8528 96.5373 87.0455C98.2384 87.3053 98.4395 87.2634 98.4395 87.2634C98.4395 87.2634 102.236 80.861 104.046 75.439C105.915 69.8243 106.107 62.9358 106.107 62.9358C106.107 62.9358 105.102 61.285 104.708 60.6983C104.314 60.1117 103.334 58.8463 103.334 58.8463C103.334 58.8463 102.697 68.5422 100.736 74.6178C98.3976 81.875 94.9199 86.8025 94.9199 86.8025ZM79.9194 81.1626C79.9194 81.1626 85.6682 72.8914 87.6459 67.0673C88.5342 64.4527 89.7996 59.1899 90.1264 56.9524C90.7885 52.3517 90.3611 48.3125 90.3611 48.3125C90.3611 48.3125 91.2242 48.6226 92.2801 49.2008C92.9254 49.5528 93.6964 50.0891 93.6964 50.0891C93.6964 50.0891 94.2495 53.2819 93.3696 58.1089C92.6908 61.8548 91.727 65.5756 90.5119 69.0198C88.6515 74.2658 82.6178 82.8806 82.6178 82.8806L79.9194 81.1626Z" fill="#838383"/>
</svg>
