<svg width="120" height="120" viewBox="0 0 120 120" fill="none" xmlns="http://www.w3.org/2000/svg">
    <path d="M108.044 25.323C106.081 24.8288 104.093 25.1027 102.405 25.9234L64.464 44.65L39.912 10.191C38.814 8.66899 37.1928 7.48657 35.23 6.99245C33.1309 6.46402 30.9079 6.79108 29.05 7.90169C27.192 9.01229 25.8514 10.8155 25.323 12.9145L17.5524 43.7812C15.9027 50.3344 19.8823 56.9919 26.4356 58.6416L33.5586 60.4348C23.0798 57.7968 12.4199 64.169 9.7819 74.6478C7.1439 85.1267 13.5161 95.7866 23.9949 98.4246C27.9455 99.42 32.1082 99.1582 35.903 97.6756C39.6977 96.193 42.9354 93.5635 45.1648 90.1536L56.9803 74.377L59.9175 93.8675C60.2666 97.9266 61.8734 101.776 64.5138 104.878C67.1542 107.981 70.6968 110.182 74.6479 111.176C85.1267 113.814 95.7866 107.442 98.4246 96.9632C101.063 86.4844 94.6904 75.8245 84.2116 73.1865L91.3347 74.9797C97.8879 76.6294 104.545 72.6498 106.195 66.0966L113.966 35.2299C114.494 33.1309 114.167 30.9079 113.056 29.0499C111.946 27.192 110.143 25.8514 108.044 25.323Z" fill="#533566"/>
    <path d="M43.7779 49.3992L30.9003 36.8996C29.4458 35.4562 26.9743 36.1806 26.4722 38.175L24.8782 44.5067C23.5234 49.8885 26.7924 55.3572 32.1742 56.712C34.137 57.2062 36.2358 56.8929 37.9794 55.8506L43.4084 52.6053C43.6777 52.4464 43.9064 52.2272 44.0767 51.965C44.2471 51.7028 44.3543 51.4047 44.3901 51.0941C44.4259 50.7835 44.3893 50.4688 44.283 50.1748C44.1768 49.8807 44.0039 49.6153 43.7779 49.3992ZM81.1661 58.8115L98.4271 53.8992C100.392 53.3165 102.226 55.1248 101.724 57.1192L100.13 63.4508C98.7747 68.8327 93.3061 72.1017 87.9242 70.7468C85.9614 70.2527 84.2611 68.9831 83.2188 67.2394L79.9735 61.8104C79.8117 61.5429 79.714 61.2416 79.6881 60.93C79.6622 60.6184 79.7089 60.3051 79.8244 60.0145C79.9399 59.724 80.1212 59.4642 80.354 59.2555C80.5868 59.0468 80.8648 58.8948 81.1661 58.8115ZM62.9705 63.9599L73.015 61.1022C74.3853 60.7403 75.8571 61.3128 76.5914 62.5412L78.4865 65.7115C79.1735 66.8607 78.1102 68.2762 76.8122 67.9494L62.851 64.4348L62.9705 63.9599ZM49.8729 55.2763L57.367 62.5492L57.2475 63.0241L43.2862 59.5094C41.9883 59.1827 41.7219 57.4324 42.8711 56.7454L46.0414 54.8504C47.2698 54.116 48.8372 54.3086 49.8729 55.2763Z" fill="#FF822D"/>
    <path d="M31.2027 19.3851L29.4334 26.4132C28.8675 28.6609 29.5445 31.0532 31.1967 32.6474L58.28 58.9235L60.4318 50.3758L36.6282 18.2934C35.0955 16.2244 31.8323 16.8841 31.2027 19.3851ZM106.454 38.3293L104.685 45.3574C104.119 47.6051 102.39 49.3917 100.18 50.0136L63.8834 60.3342L66.0353 51.7865L102.192 34.7988C104.522 33.7021 107.084 35.8283 106.454 38.3293ZM48.065 69.1445L37.5546 66.4985C35.8134 66.0602 34.4326 67.9344 35.3644 69.4482L42.3525 81.1385C43.0868 82.3669 44.8207 82.4331 45.6777 81.3023L50.2404 75.2131C51.8988 73.0384 50.756 69.8219 48.065 69.1445ZM25.7277 65.0697C23.0404 65.6412 20.5669 66.9542 18.5877 68.8598C16.6085 70.7654 15.2029 73.1874 14.5301 75.8512C12.5615 83.6707 17.1489 91.5248 24.9049 93.612C27.5957 94.3551 30.4433 94.3109 33.1097 93.4844C35.7761 92.658 38.1496 91.0841 39.9484 88.9494L39.996 88.894C40 88.8782 40.0119 88.8711 40.0198 88.8664C40.0286 88.8585 40.0397 88.8545 40.0436 88.8387C41.1147 87.5261 41.2524 85.6419 40.3759 84.1757L30.0635 66.9692C29.1634 65.4633 27.4386 64.6925 25.7277 65.0697ZM22.0718 87.8828C20.6948 87.5361 19.5119 86.6567 18.7834 85.4379C18.0548 84.2191 17.8403 82.7608 18.1869 81.3838C18.5336 80.0068 19.413 78.8239 20.6318 78.0954C21.8506 77.3668 23.3089 77.1523 24.6859 77.4989C26.0629 77.8456 27.2458 78.725 27.9743 79.9438C28.7029 81.1626 28.9174 82.6209 28.5708 83.9979C28.2241 85.3749 27.3447 86.5578 26.1259 87.2863C24.9071 88.0149 23.4488 88.2294 22.0718 87.8828ZM67.4398 74.022L77.9503 76.6679C79.6915 77.1063 80.0203 79.4109 78.4827 80.3031L66.7925 87.2911C65.564 88.0255 64.0055 87.2628 63.7861 85.861L62.6504 78.3372C62.2193 75.6365 64.7489 73.3445 67.4398 74.022ZM89.0439 81.0093C93.1792 84.5078 95.2126 90.2041 93.802 95.8075C91.8334 103.627 84.0741 108.373 76.2543 106.539C73.5324 105.919 71.0452 104.532 69.0879 102.542C67.1306 100.551 65.7853 98.0412 65.2116 95.3093L65.1879 95.2696C65.1919 95.2538 65.1848 95.2419 65.1801 95.234C65.173 95.2221 65.1682 95.2142 65.1722 95.1984C64.8503 93.5351 65.6212 91.8103 67.0874 90.9338L84.3255 80.6294C85.8314 79.7292 87.7156 79.8669 89.0439 81.0093ZM81.566 102.423C82.943 102.769 84.4013 102.555 85.6201 101.826C86.8389 101.098 87.7184 99.9147 88.065 98.5377C88.4117 97.1607 88.1971 95.7024 87.4685 94.4836C86.74 93.2648 85.5571 92.3853 84.1801 92.0387C82.8031 91.6921 81.3448 91.9066 80.126 92.6352C78.9073 93.3637 78.0278 94.5466 77.6811 95.9236C77.3345 97.3006 77.549 98.7589 78.2776 99.9777C79.0062 101.196 80.189 102.076 81.566 102.423Z" fill="#FF6723"/>
    <path d="M62.9507 14.6223C62.8644 14.4259 62.7403 14.2485 62.5855 14.1001C62.4306 13.9517 62.248 13.8353 62.0482 13.7575C61.8483 13.6797 61.6351 13.642 61.4207 13.6465C61.2062 13.6511 60.9948 13.6979 60.7985 13.7842C60.6021 13.8705 60.4247 13.9946 60.2763 14.1495C60.1279 14.3043 60.0115 14.4869 59.9337 14.6868C59.8559 14.8866 59.8182 15.0998 59.8228 15.3143C59.8273 15.5287 59.8741 15.7401 59.9604 15.9365C63.4318 23.8405 64.1633 32.6776 62.0388 41.0448C61.9395 41.4373 61.9897 41.8526 62.1795 42.2101C62.3692 42.5677 62.6851 42.842 63.0657 42.9798C63.4463 43.1175 63.8646 43.109 64.2392 42.9557C64.6139 42.8025 64.9183 42.5155 65.0932 42.1504C65.0745 42.5548 65.2067 42.9517 65.4641 43.2641C65.7216 43.5764 66.0859 43.782 66.4864 43.8409C66.8869 43.8998 67.2949 43.8077 67.6314 43.5826C67.9678 43.3576 68.2086 43.0155 68.3071 42.6228C70.5027 33.901 75.4657 26.6232 82.0261 21.4914C82.3674 21.2246 82.5887 20.8332 82.6413 20.4033C82.694 19.9734 82.5737 19.5401 82.307 19.1989C82.0402 18.8576 81.6488 18.6363 81.2189 18.5836C80.789 18.5309 80.3557 18.6512 80.0145 18.918C73.0948 24.3293 68.0472 31.7751 65.5826 40.2066C67.4039 31.6132 66.4834 22.6649 62.9507 14.6223Z" fill="#212121"/>
    <path d="M67.5453 44.6738C68.9697 44.3407 70.2409 43.5389 71.1552 42.397C72.0695 41.2552 72.5738 39.8394 72.5874 38.3766C72.6009 36.9139 72.1228 35.489 71.2299 34.3304C70.3369 33.1718 69.0807 32.3466 67.6627 31.9872C66.2448 31.6278 64.7472 31.7549 63.4102 32.3482C62.0731 32.9416 60.974 33.9667 60.2891 35.2593C59.6043 36.5518 59.3733 38.0369 59.6332 39.4764C59.8931 40.916 60.629 42.2265 61.7226 43.1979C61.0387 43.4794 60.4303 43.9174 59.9463 44.4767C59.4624 45.036 59.1163 45.701 58.9358 46.4182L50.4799 80.0075C49.8423 82.5401 51.3821 85.1159 53.9147 85.7535L54.2629 85.8412C56.7956 86.4788 59.3714 84.939 60.009 82.4064L68.4649 48.8171C68.8435 47.3134 68.4517 45.7941 67.5453 44.6738Z" fill="#321B41"/>
</svg>
