<svg width="120" height="120" viewBox="0 0 120 120" fill="none" xmlns="http://www.w3.org/2000/svg">
    <path d="M34.1908 12.6825C33.8075 13.3839 34.2643 14.2893 35.9526 14.9826C37.6328 15.6677 41.238 17.2011 42.3065 18.8895C43.375 20.5779 43.9133 21.9482 42.7632 24.7866C41.6132 27.625 44.37 28.0818 44.37 28.0818C44.37 28.0818 47.2003 24.7132 45.5201 19.8928C43.8399 15.0723 38.0162 13.0822 37.1761 12.7722C36.336 12.4541 34.6476 11.8424 34.1908 12.6825Z" fill="#70853C"/>
    <path d="M40.2566 92.8893C42.0554 91.361 42.2298 88.6109 40.646 86.7468C39.0623 84.8828 36.3201 84.6106 34.5213 86.1389C32.7224 87.6673 32.5481 90.4174 34.1318 92.2815C35.7156 94.1455 38.4577 94.4177 40.2566 92.8893Z" fill="#70853C"/>
    <path d="M54.0094 99.3586C55.035 97.2326 54.0804 94.6476 51.8773 93.5848C49.6743 92.522 47.0569 93.3839 46.0313 95.5099C45.0057 97.6359 45.9603 100.221 48.1633 101.284C50.3664 102.346 52.9838 101.485 54.0094 99.3586Z" fill="#70853C"/>
    <path d="M70.9238 101.109C71.3007 98.7793 69.6488 96.5737 67.2342 96.1831C64.8196 95.7925 62.5565 97.3648 62.1796 99.695C61.8026 102.025 63.4545 104.231 65.8692 104.621C68.2838 105.012 70.5468 103.44 70.9238 101.109Z" fill="#70853C"/>
    <path d="M86.4228 104.219C86.7997 101.889 85.1479 99.6831 82.7332 99.2925C80.3186 98.9019 78.0556 100.474 77.6786 102.804C77.3017 105.134 78.9535 107.34 81.3682 107.731C83.7828 108.121 86.0458 106.549 86.4228 104.219Z" fill="#70853C"/>
    <path d="M27.0132 55.55C29.3286 55.55 31.2056 53.7497 31.2056 51.5289C31.2056 49.3081 29.3286 47.5078 27.0132 47.5078C24.6978 47.5078 22.8208 49.3081 22.8208 51.5289C22.8208 53.7497 24.6978 55.55 27.0132 55.55Z" fill="#70853C"/>
    <path d="M27.9284 68.0563C30.2355 67.86 31.9531 65.9071 31.7648 63.6943C31.5766 61.4815 29.5537 59.8467 27.2466 60.043C24.9396 60.2393 23.222 62.1923 23.4102 64.4051C23.5985 66.6179 25.6213 68.2526 27.9284 68.0563Z" fill="#70853C"/>
    <path d="M32.0427 81.6301C34.3422 80.8366 35.5487 78.2879 34.7376 75.9373C33.9265 73.5868 31.4049 72.3245 29.1054 73.118C26.806 73.9114 25.5994 76.4602 26.4105 78.8108C27.2216 81.1613 29.7433 82.4236 32.0427 81.6301Z" fill="#70853C"/>
    <path d="M52.7956 68.2968C57.8444 76.7958 73.464 76.6816 88.276 81.502C97.9984 84.6667 104.01 92.1787 102.86 99.1851C101.71 106.191 96.7668 107.994 92.5255 107.798C87.4767 107.57 81.3838 103.32 76.7918 102.285C72.1997 101.249 54.0191 99.4543 49.2313 97.4641C43.7175 95.164 36.597 90.2294 32.3557 82.8804C28.3427 75.9312 27.5352 63.3622 27.421 57.6201C27.3069 51.878 27.5352 46.3642 27.0785 44.9858C26.6217 43.6074 18.8976 43.5421 17.3153 36.601C15.5943 29.0237 21.108 20.9815 29.2562 19.4889C37.4045 17.9962 47.6245 21.9032 50.3813 31.3157C53.1382 40.7363 48.954 61.8369 52.7956 68.2968Z" fill="#B7D019"/>
    <path d="M32.6579 59.0702C32.1359 60.31 33.6203 61.2316 35.7165 61.4029C38.4734 61.6313 42.625 60.5383 45.7815 59.3393C49.0767 58.0833 51.124 56.5254 51.124 56.5254L51.0669 53.0263C51.0669 53.0263 48.8239 55.204 43.6772 56.7782C41.214 57.5286 37.7067 58.3116 36.5159 58.3443C35.3413 58.3769 33.082 58.0751 32.6579 59.0702ZM44.4113 12.179C43.6527 12.7663 44.1258 13.7614 44.7538 14.6259C45.4798 15.621 47.1681 17.8396 47.2415 19.9439C47.2905 21.2082 46.8582 24.6012 46.2872 25.531C45.3329 27.0971 47.3965 28.2471 48.4324 27.5946C49.6966 26.8034 50.2268 21.616 49.9984 19.4056C49.6151 15.5802 47.4373 13.7777 46.6706 13.011C46.0507 12.4074 45.0964 11.6488 44.4113 12.179ZM87.5831 81.2638C87.5831 81.2638 87.7381 86.802 86.898 89.722C85.9437 93.0498 84.7528 95.6517 84.1411 96.8833C83.8801 97.4053 83.6844 98.1475 84.3287 98.6451C84.9731 99.1426 86.0905 98.7593 86.5473 98.0741C87.0937 97.2503 88.9616 94.1672 89.8017 90.3418C90.9354 85.1788 90.5684 82.267 90.5684 82.267C90.5684 82.267 89.4591 81.8102 89.035 81.6961C88.619 81.5737 87.5831 81.2638 87.5831 81.2638ZM73.7254 77.8218C73.7254 77.8218 73.8804 82.0713 72.9179 85.6682C72.2654 88.1152 70.5852 91.4837 70.2426 92.177C69.9 92.8622 69.1497 94.0122 69.8593 94.8931C70.8788 96.1655 72.5182 94.624 73.0566 93.4413C73.4073 92.6583 75.0141 90.0238 75.9847 86.28C77.094 81.9897 76.7922 78.5069 76.7922 78.5069L73.7254 77.8218ZM60.0634 74.1106C60.0634 74.1106 59.6637 79.5999 58.3424 82.0713C56.2788 85.9374 53.6362 88.0417 53.2936 88.3843C52.951 88.7269 51.646 89.8688 52.9102 90.7578C53.9461 91.4837 55.2104 90.7578 55.5529 90.4479C55.8955 90.1379 59.6474 87.6665 61.45 82.8298C62.9018 78.9229 62.9834 75.1709 62.9834 75.1709C62.9834 75.1709 61.8007 74.7142 61.4908 74.6C61.1727 74.4939 60.0634 74.1106 60.0634 74.1106ZM52.0457 66.5659C52.0457 66.5659 48.8891 70.3179 46.7032 71.8513C44.0034 73.7517 40.6593 74.7957 39.5419 74.9099C38.4326 75.0241 36.8992 75.1383 37.095 76.5901C37.2826 78.042 39.3869 77.9686 40.5044 77.9686C42.2254 77.9686 46.3199 76.3455 48.9462 74.4287C51.4502 72.6017 53.7667 69.7225 53.7667 69.7225C53.7667 69.7225 52.7879 68.499 52.6737 68.1156C52.5595 67.7404 52.0457 66.5659 52.0457 66.5659Z" fill="#70853C"/>
    <path d="M33.84 55.6898C35.2365 55.6898 36.3685 54.5577 36.3685 53.1613C36.3685 51.7649 35.2365 50.6328 33.84 50.6328C32.4436 50.6328 31.3115 51.7649 31.3115 53.1613C31.3115 54.5577 32.4436 55.6898 33.84 55.6898Z" fill="#FE6014"/>
    <path d="M34.4113 71.9398C35.8077 71.9398 36.9398 70.8077 36.9398 69.4113C36.9398 68.0149 35.8077 66.8828 34.4113 66.8828C33.0149 66.8828 31.8828 68.0149 31.8828 69.4113C31.8828 70.8077 33.0149 71.9398 34.4113 71.9398Z" fill="#FE6014"/>
    <path d="M45.4382 88.096C46.8346 88.096 47.9666 86.964 47.9666 85.5675C47.9666 84.1711 46.8346 83.0391 45.4382 83.0391C44.0417 83.0391 42.9097 84.1711 42.9097 85.5675C42.9097 86.964 44.0417 88.096 45.4382 88.096Z" fill="#FE6014"/>
    <path d="M63.456 94.89C64.7533 94.89 65.805 93.8565 65.805 92.5817C65.805 91.3069 64.7533 90.2734 63.456 90.2734C62.1586 90.2734 61.1069 91.3069 61.1069 92.5817C61.1069 93.8565 62.1586 94.89 63.456 94.89Z" fill="#FE6014"/>
    <path d="M78.5702 98.4215C79.854 98.4215 80.8948 97.4282 80.8948 96.2029C80.8948 94.9777 79.854 93.9844 78.5702 93.9844C77.2864 93.9844 76.2456 94.9777 76.2456 96.2029C76.2456 97.4282 77.2864 98.4215 78.5702 98.4215Z" fill="#FE6014"/>
    <path d="M92.1747 102.664C93.4585 102.664 94.4993 101.67 94.4993 100.445C94.4993 99.2198 93.4585 98.2266 92.1747 98.2266C90.8909 98.2266 89.8501 99.2198 89.8501 100.445C89.8501 101.67 90.8909 102.664 92.1747 102.664Z" fill="#FE6014"/>
    <path d="M96.5872 86.6352C94.7765 85.7462 93.4551 88.7233 92.664 91.9287C91.8728 95.1342 91.1387 97.2957 93.1289 97.94C95.5595 98.723 97.305 95.1261 97.9085 92.3529C98.5121 89.5797 98.243 87.4427 96.5872 86.6352ZM83.4472 80.7545C80.5762 79.947 80.1684 83.8458 79.4832 86.8962C78.7655 90.1099 76.9547 92.9483 79.5403 93.7313C82.7539 94.7101 84.4178 90.5911 84.997 87.9892C85.6005 85.2894 86.1878 81.5212 83.4472 80.7545ZM68.6352 77.0841C65.6336 76.2766 65.2258 80.1101 64.2715 83.3808C63.3172 86.676 62.9257 89.4737 64.7283 90.118C66.8734 90.8847 68.6678 88.4378 69.6629 85.1018C70.6661 81.7659 71.7428 77.9079 68.6352 77.0841ZM48.2768 83.8947C50.3159 86.0969 53.5295 83.3401 55.2016 80.9829C56.8084 78.7235 59.7121 74.9553 57.151 73.0222C54.9732 71.3746 52.2408 74.8166 50.6095 76.9617C49.1577 78.8785 46.3274 81.7903 48.2768 83.8947ZM37.1759 68.3731C37.6653 70.3387 42.3063 70.9015 45.9441 68.7972C48.5133 67.3127 51.4904 65.0045 50.8053 62.3292C50.0875 59.5233 45.6749 62.06 43.1138 63.0959C40.5445 64.1236 36.3358 65.0045 37.1759 68.3731ZM50.6666 47.5742C50.0957 45.6248 47.0126 47.6721 43.6032 48.7814C40.5609 49.7764 36.3685 49.5888 36.5968 52.7617C36.8007 55.5512 43.1301 54.393 45.5526 53.4876C48.4318 52.411 51.4823 50.3311 50.6666 47.5742Z" fill="#2E2E27"/>
    <path d="M35.1999 31.5775C35.9724 30.2394 35.5899 28.5722 34.3454 27.8537C33.1009 27.1352 31.4658 27.6375 30.6933 28.9756C29.9207 30.3137 30.3033 31.9809 31.5477 32.6994C32.7922 33.4179 34.4273 32.9156 35.1999 31.5775Z" fill="#2E2E27"/>
</svg>
