<svg width="120" height="120" viewBox="0 0 120 120" fill="none" xmlns="http://www.w3.org/2000/svg">
    <path d="M10.7588 52.0428C11.012 52.0665 11.3207 52.019 11.7243 51.8845C13.0618 51.4571 14.0273 50.5628 15.0957 49.7002C18.5938 46.9144 21.8228 44.8409 26.1439 43.6458C27.2678 43.3372 28.3837 43.2897 29.4758 42.989C31.668 42.3637 30.9399 39.76 29.9744 38.2721C28.6053 36.159 25.5266 37.5836 23.6668 38.3354C19.0607 40.1636 14.3043 43.3451 11.4869 47.5238C10.6954 48.7109 9.02555 51.932 10.7588 52.0428ZM25.4 12.179C25.6058 12.3215 25.8195 12.5668 26.049 12.9151C26.8087 14.0864 26.9828 15.408 27.2757 16.7376C28.2095 21.1142 29.3967 24.7705 31.9925 28.4269C32.6494 29.3686 33.4962 30.1126 34.1452 31.0465C35.451 32.9142 33.2271 34.4733 31.5493 35.0194C29.1513 35.7791 27.6714 32.7322 26.7058 30.9752C24.3078 26.6303 22.638 21.1537 23.097 16.1361C23.2315 14.7195 23.9913 11.166 25.4 12.179ZM99.9121 90.8223C101.709 90.5849 104.613 92.1361 105.99 93.244C106.774 93.8772 108.396 96.5759 109.354 95.9349C111.269 94.6686 108.404 91.3842 107.51 90.5057C105.856 88.8754 103.553 87.9574 101.329 87.4588L99.9121 90.8223ZM99.7063 80.0907C101.313 79.5208 102.832 78.5474 103.964 77.2811C104.526 76.648 105.009 75.912 105.302 75.1047C105.523 74.4716 105.523 73.047 106.52 73.0629C108.143 73.0945 107.367 76.4976 107.09 77.3049C106.576 78.7927 105.729 80.336 104.589 81.4361C103.711 82.2829 102.927 83.383 101.582 83.2959C100.569 83.2326 98.2976 81.3965 99.4214 80.2569C99.4689 80.1936 99.5718 80.1461 99.7063 80.0907ZM36.9943 45.5215C36.8993 46.6137 36.9151 47.7454 36.6302 48.6872C35.9654 50.8794 34.7625 52.7392 32.9581 54.1559C31.8342 55.0423 29.3888 55.3509 29.4362 57.2108C29.4837 58.6432 31.1378 59.2605 32.3487 59.3001C35.9892 59.4346 39.1628 55.6042 40.7219 52.7392C41.1018 52.027 41.4421 51.2909 41.7111 50.5312C42.0831 49.4944 44.3228 43.6617 43.7134 43.0364C43.5156 42.8465 42.8666 42.6645 42.6134 42.6012C41.1097 42.2055 39.2657 41.3507 37.9994 42.6961C37.295 43.4322 37.0893 44.4531 36.9943 45.5215ZM50.0052 46.1309C47.6072 48.5051 45.4783 51.2672 44.0379 54.33C43.2623 55.9761 42.6292 57.7173 42.2651 59.498C42.0752 60.416 41.9486 61.3736 42.0594 62.3075C42.2889 64.1515 43.9509 64.286 45.32 63.5104C47.0136 62.5449 47.077 60.6297 47.8526 59.0152C49.7361 55.0898 52.5061 52.0744 55.3235 48.8375C56.1862 47.8562 57.1359 46.8036 56.8114 45.387C55.9725 41.7543 51.3981 44.7459 50.0052 46.1309ZM60.9664 55.5171C57.5395 56.7755 54.2314 58.6116 51.5801 61.152C50.2506 62.4262 49.103 63.8745 48.2562 65.5048C47.8605 66.2725 47.441 66.9452 47.441 67.8079C47.4331 68.8684 47.5202 69.7389 48.6281 70.0792C52.237 71.1793 54.2947 65.7027 56.7798 63.9774C59.2015 62.2996 61.8686 60.6218 64.7652 59.9649C65.4379 59.8145 66.0631 59.7354 66.6962 59.4109C68.0496 58.7224 68.097 57.5748 67.361 56.3244C66.2056 54.3616 63.6968 54.5041 60.9664 55.5171ZM64.9393 67.0085C61.3937 67.9345 57.9036 69.4382 55.0149 71.7254C53.2263 73.1341 50.2822 75.722 50.3534 78.2229C50.4484 81.4598 54.5559 79.0302 55.7826 77.9855C56.9618 76.9725 57.8719 75.817 59.2411 74.9781C61.0059 73.8859 62.9924 73.2212 64.9947 72.6988C65.8811 72.4614 66.7754 72.2635 67.6697 72.0657C69.8382 71.5829 72.6319 71.4721 71.2311 68.4489C70.2655 66.3675 67.7567 66.2725 64.9393 67.0085ZM91.4043 94.1779C91.3885 95.2701 91.2619 96.4018 91.4676 97.3673C91.9108 99.6071 92.9318 101.57 94.5937 103.153C95.4485 103.968 97.5141 105.289 97.0471 106.73C96.4061 108.693 93.4224 108.218 92.1483 107.426C89.7898 105.938 88.0962 103.525 87.004 100.992C86.6875 100.256 86.4184 99.4883 86.2284 98.6969C85.9594 97.6364 84.2816 91.6216 84.9701 91.0518C85.1759 90.8698 85.8407 90.759 86.0939 90.7194C87.6451 90.482 89.5524 89.7935 90.6841 91.2576C91.3093 92.0727 91.4043 93.1095 91.4043 94.1779ZM82.6117 92.3181C82.485 95.6974 81.8915 99.1164 80.6094 102.258C79.9762 103.809 79.2006 105.329 78.2589 106.706C77.3329 108.059 76.6206 108.574 74.9666 108.487C71.0174 108.289 73.8427 104.466 74.5708 102.622C76.1853 98.5703 76.5336 94.4945 76.9926 90.2287C77.143 88.9308 77.2696 87.5221 78.5438 86.8019C81.7886 84.9579 82.675 90.3475 82.6117 92.3181ZM75.8925 86.8573C74.7608 90.3237 73.0672 93.6952 70.6217 96.4414C69.6007 97.5731 68.4611 98.602 67.179 99.4329C66.2451 100.042 64.9393 101.016 63.7522 100.945C62.7233 100.881 61.3146 99.884 61.3146 98.7761C61.3146 97.6523 62.478 96.7659 63.2298 96.0932C64.5357 94.9139 65.9365 93.8139 66.9337 92.3418C68.6431 89.7935 70.7245 86.2558 71.2944 83.2089C71.421 82.5282 71.4685 81.9188 71.7692 81.2699C72.4182 79.8928 73.542 79.7978 74.8241 80.4864C76.8422 81.5706 76.8027 84.0873 75.8925 86.8573ZM71.6822 80.7159C69.205 83.4225 66.261 85.8126 62.8895 87.3084C61.0376 88.1157 58.9245 88.7804 56.8826 88.7646C55.7113 88.7646 53.8832 88.3135 53.7407 86.9444C53.4321 83.9291 57.5079 83.8262 59.5814 83.1376C63.3485 81.8951 65.984 78.8798 68.4769 75.9357C69.9015 74.25 71.3023 71.8283 73.3362 74.4795C74.7212 76.2919 73.637 78.5711 71.6822 80.7159ZM40.6269 29.978C41.1334 29.0125 41.7665 28.0707 42.0356 27.121C42.6608 24.913 42.6608 22.7049 41.9248 20.5364C41.3867 18.9615 39.6535 17.3391 40.437 15.4951C41.6003 12.7489 45.0905 16.421 45.8186 17.5607C47.4252 20.022 47.8842 23.0452 47.6705 25.9418C47.6072 26.7411 47.4964 27.5484 47.3144 28.3319C47.0611 29.4082 45.779 35.518 44.9243 35.7158C44.6631 35.7791 44.0063 35.5734 43.753 35.4863C42.2889 34.9956 40.2708 34.7186 39.9384 32.9063C39.7405 31.8933 40.1283 30.9277 40.6269 29.978ZM51.5406 33.9035C52.1104 30.5795 53.1709 27.2556 54.8645 24.3273C55.647 22.9562 56.5586 21.663 57.587 20.4652C58.6 19.3097 60.4757 18.0197 62.0981 18.8744C64.4644 20.1328 61.647 23.4409 60.8872 24.7784C58.7425 28.5693 57.8482 32.5581 56.7956 36.7209C56.479 37.9872 56.1624 39.3722 54.8091 39.9103C51.3427 41.3032 51.2003 35.8425 51.5406 33.9035ZM59.9771 37.5598C61.7499 34.3546 64.0529 31.3709 66.9732 29.1312C68.4294 28.0153 70.0439 27.0973 71.7851 26.5195C73.9298 25.7993 76.8343 26.0051 75.576 29.0996C74.6262 31.458 71.5318 32.1149 69.8065 33.8481C67.6459 36.0245 64.9314 39.111 63.7996 41.9918C63.5543 42.6249 63.3802 43.2264 62.9607 43.812C62.0743 45.0466 60.9347 44.92 59.8109 44.0099C58.0539 42.5695 58.5763 40.1003 59.9771 37.5598ZM65.8732 44.8171C68.1762 41.9601 70.9699 39.3959 74.2384 37.6944C75.8688 36.8476 77.6336 36.2223 79.4539 35.9533C80.4827 35.795 81.8994 36.0799 82.3109 37.1641C83.1894 39.5226 79.3194 41.0421 77.7919 41.6515C74.1118 43.1235 71.6663 46.2971 69.3633 49.3836C68.0337 51.1643 66.7912 53.6652 64.6069 51.1485C63.1111 49.4153 64.045 47.0806 65.8732 44.8171Z" fill="#855C52"/>
    <path d="M69.7667 53.7845C72.0697 50.9196 74.8635 48.3633 78.132 46.6618C79.7703 45.8149 81.5272 45.1897 83.3475 44.9206C84.3684 44.7703 85.793 45.0473 86.2045 46.1315C87.083 48.4899 83.2129 50.0095 81.6934 50.6189C78.0133 52.0988 75.5678 55.2645 73.2569 58.351C71.9273 60.1238 70.6848 62.6247 68.5004 60.108C67.0047 58.3906 67.9385 56.0559 69.7667 53.7845ZM88.7054 78.73C90.9451 76.8227 92.9315 74.6305 94.3482 72.0505C95.5195 69.9057 97.4664 65.6004 96.121 63.2024C94.1741 59.7123 91.0638 67.302 90.3594 68.3545C88.6658 70.9029 86.1887 74.1873 83.5928 75.873C83.0072 76.245 82.4532 76.5299 81.9783 77.0601C80.9495 78.184 81.2898 79.2682 82.4136 80.1942C84.1864 81.6266 86.4973 80.6215 88.7054 78.73ZM78.8918 71.4252C81.9625 69.423 84.7878 66.8825 86.7901 63.796C87.6449 62.4822 88.6975 60.7886 88.8953 59.1978C89.0219 58.1769 88.737 55.8976 87.5182 55.6206C85.144 55.0587 84.0043 58.3273 83.205 59.8626C81.3768 63.3844 77.9816 65.5054 74.6973 67.5077C72.782 68.6395 70.1862 69.6366 72.4813 72.0663C74.0325 73.7283 76.4463 73.016 78.8918 71.4252Z" fill="#855C52"/>
    <path d="M94.1034 77.708C91.7054 77.8109 89.2679 78.1037 87.1943 77.7476C82.1847 76.9008 80.4119 71.7644 78.7499 67.657C77.1433 63.6999 76.344 59.4816 75.4734 55.3188C74.9669 52.9287 74.4288 50.5386 73.6927 48.2118C71.8566 42.3316 68.2319 37.2823 62.874 34.1483C60.0803 32.518 56.8276 31.0697 53.7015 30.2387C49.5624 29.1465 45.2729 28.553 41.0309 28.094C36.2665 27.5795 30.9957 27.9119 27.6638 31.8057C25.5428 34.2829 25.1392 38.2558 26.2868 41.2473C29.033 48.3701 38.5933 47.2226 44.6556 47.9902C47.5522 48.3543 50.5279 49.1853 52.9338 50.9026C54.7857 52.2322 56.3211 54.4086 57.1758 56.5138C59.7163 62.8293 60.3732 69.5643 62.3438 75.8561C63.6575 80.0664 65.4541 84.1185 68.501 87.8302C74.1518 94.7314 81.9393 96.987 90.6133 95.8394C93.9135 95.3962 97.1346 95.2458 100.087 93.4731C102.841 91.8111 105.001 88.962 104.661 85.6143C104.503 83.9998 103.782 81.6414 102.738 80.3593C100.593 77.7555 97.3799 77.5655 94.1034 77.708Z" fill="#ED6C30"/>
    <path d="M33.512 43.4267C33.512 43.4267 27.7584 40.5459 29.2858 35.8053C30.7895 31.1281 35.0394 30.8906 35.0394 30.8906L33.512 43.4267ZM38.5454 33.803C37.5799 37.1666 37.1367 44.5426 37.1367 44.5426L41.814 44.2735L42.2572 36.85L38.5454 33.803ZM46.6733 38.3616L45.5337 44.78L50.0052 46.1333L50.7412 40.728L46.6733 38.3616ZM54.7458 42.6353L52.8147 47.4946L56.8826 50.2012L58.6079 46.8615L54.7458 42.6353ZM62.2405 50.6523L59.059 52.8446L60.9188 57.9176L64.1003 56.7463L62.2405 50.6523ZM65.3903 60.917L61.6153 62.7294L62.8024 67.6441L66.0077 66.3778L65.3903 60.917ZM66.9811 70.0817L64.0687 71.7753L65.2795 76.5555L67.725 74.8777L66.9811 70.0817ZM68.9755 78.3124L66.5458 80.0536C66.5458 80.0536 69.1417 83.8919 69.4503 83.8919C69.759 83.8919 71.1598 82.4595 71.1598 82.4595L68.9755 78.3124ZM73.1858 84.7308L71.4843 86.8598L74.4679 89.3923L75.9716 87.0893L73.1858 84.7308Z" fill="#F79329"/>
</svg>
