<svg width="120" height="120" viewBox="0 0 120 120" fill="none" xmlns="http://www.w3.org/2000/svg">
    <path d="M64.2524 44.7304C63.6519 44.9276 62.9981 44.8703 62.4273 44.5134C61.9449 44.2051 61.6034 43.7192 61.4767 43.161C61.3499 42.6027 61.448 42.017 61.7499 41.5306L66.9462 33.3222C67.925 31.7911 68.133 29.9387 67.5682 28.2191L65.5957 22.2143C65.1564 20.8768 65.2537 19.4236 65.8952 18.1545L67.1416 15.6888C67.6731 14.6373 68.9833 14.207 70.0348 14.7385C71.0863 15.27 71.5167 16.5802 70.9851 17.6317L69.7388 20.0974C69.6105 20.3512 69.6003 20.5965 69.6899 20.8694L71.6624 26.8743C72.6306 29.8221 72.226 33.0092 70.5702 35.6094L65.4101 43.836C65.1356 44.2891 64.7164 44.578 64.2524 44.7304Z" fill="#212121"/>
    <path d="M62.515 68.3399C62.2567 68.8342 61.8146 69.2074 61.284 69.3792C60.7654 69.5496 60.184 69.5289 59.6401 69.2539L34.4756 56.5335C32.9164 55.7453 31.1454 55.6013 29.4804 56.1482L27.6244 56.7579C26.5053 57.1254 25.2725 56.5023 24.9049 55.3832C24.5373 54.2641 25.1605 53.0312 26.2796 52.6637L28.1356 52.054C30.8924 51.1485 33.835 51.3613 36.4184 52.6899L61.5467 65.392L74.2488 40.2637C74.8826 38.9855 75.7659 37.847 76.8466 36.9156C77.9273 35.9841 79.1836 35.2785 80.5413 34.8402L82.3974 34.2306C83.5165 33.863 84.7493 34.4862 85.1169 35.6053C85.4845 36.7244 84.8613 37.9572 83.7422 38.3248L81.8862 38.9344C80.2212 39.4813 78.8806 40.6474 78.0924 42.2066L65.372 67.3712C65.0971 67.9151 64.6412 68.2765 64.1226 68.4468C63.5934 68.6232 63.0162 68.5847 62.515 68.3399Z" fill="#212121"/>
    <path d="M48.6143 49.0389C48.3986 49.568 47.9848 49.9919 47.4611 50.2204C46.9375 50.4489 46.3453 50.4639 45.8107 50.2622L36.7592 46.7339C35.3386 46.1859 34.0577 45.3285 33.0097 44.2239C31.9617 43.1193 31.1727 41.7952 30.7002 40.3477L28.7278 34.3429C28.6381 34.07 28.4845 33.8785 28.2307 33.7502L25.7923 32.4948C25.285 32.2347 24.9008 31.785 24.7229 31.2434C24.545 30.7018 24.5878 30.1119 24.8419 29.6016C25.3735 28.5501 26.6836 28.1197 27.7352 28.6513L30.2009 29.8976C31.47 30.5392 32.4099 31.6517 32.8493 32.9891L34.8217 38.9939C35.3865 40.7135 36.6524 42.0818 38.3485 42.7343L47.391 46.2353C48.5065 46.6854 49.037 47.9324 48.6143 49.0389Z" fill="#212121"/>
    <path d="M37.4066 36.2788C37.4366 36.6767 37.5511 37.0637 37.7424 37.4138C37.9338 37.764 38.1976 38.0693 38.5163 38.3095C38.835 38.5497 39.2012 38.7191 39.5906 38.8065C39.9799 38.8939 40.3835 38.8973 40.7742 38.8165C39.7767 41.7582 39.764 44.9446 40.7381 47.8942C41.0232 48.7622 41.3848 49.5868 41.8066 50.3555L41.6346 50.6236L44.7017 59.9611C41.9637 72.3394 47.7583 85.5801 59.7314 91.6323L59.9853 91.7606C63.2656 93.4124 67.067 93.6963 70.5563 92.5502C74.0456 91.4041 76.9382 88.9213 78.6002 85.6462L78.7285 85.3924C84.7991 73.383 81.5769 59.237 71.9659 50.9028L68.9293 41.6581L68.6291 41.5451C68.3743 39.5665 67.7084 37.663 66.6741 35.9571C65.6398 34.2512 64.2601 32.7805 62.6236 31.6396C62.9911 31.4761 63.3193 31.236 63.5865 30.9353C63.8537 30.6347 64.0535 30.2804 64.1727 29.8963C64.2919 29.5121 64.3276 29.107 64.2776 28.7079C64.2275 28.3088 64.0928 27.925 63.8824 27.5822C63.4534 26.898 62.9669 26.2515 62.4282 25.6498L50.0957 20.9615C48.1541 21.1852 46.2783 21.8014 44.5822 22.7725L37.4317 33.8604C37.3549 34.6644 37.3465 35.4734 37.4066 36.2788Z" fill="#533566"/>
    <path d="M37.4364 33.8842C37.6542 31.5913 38.4193 29.3841 39.6672 27.4482C40.9151 25.5123 42.6095 23.9042 44.6079 22.7591L44.6352 22.7501L45.0656 24.0603C46.2669 27.7178 44.2601 31.6428 40.6299 32.8352L37.4364 33.8842ZM50.4972 22.2761L50.0668 20.966C54.7571 20.4233 59.3735 22.2333 62.4656 25.6628L59.2721 26.7118C55.6147 27.9132 51.6896 25.9063 50.4972 22.2761Z" fill="#F8312F"/>
    <path d="M41.7124 50.1249C43.0658 52.6879 45.1621 54.782 47.7265 56.1327C50.2909 57.4834 53.2036 58.0277 56.0827 57.694L61.22 73.3339C63.1207 79.1203 62.1843 85.4758 58.6918 90.4937L53.9378 97.2867L52.3336 97.0062L51.9255 100.164L49.842 103.138C48.5071 105.058 46.584 106.476 44.3731 107.202C42.2925 107.883 40.0543 107.916 37.9543 107.298C35.8543 106.679 33.9915 105.438 32.6121 103.738L32.3308 100.553L30.9242 100.827C30.862 100.666 30.8037 100.504 30.7491 100.34C26.5887 87.7664 27.9664 74.0085 34.5944 62.5176L37.7473 57.0277L39.3337 57.4289L39.6671 53.6846L41.7124 50.1249ZM68.6249 41.2849C69.0548 44.1512 68.6086 47.0806 67.3446 49.6888C66.0806 52.297 64.0578 54.4624 61.5417 55.9009L66.6789 71.5408C68.5796 77.3272 73.1022 81.8896 78.8898 83.8592L86.7559 86.5129L87.8167 85.351L90.078 87.6322L93.5134 88.7929C95.7269 89.5476 98.1163 89.549 100.327 88.8228C102.406 88.1377 104.227 86.8386 105.552 85.0969C106.877 83.3552 107.643 81.2528 107.749 79.067L106.026 76.3457L107.38 75.7257C107.336 75.5639 107.288 75.4031 107.237 75.2435C103.122 62.6244 93.8275 52.372 81.704 47.0404L75.9071 44.4903L74.8167 45.7738L72.4288 42.9596L68.6276 41.284L68.6249 41.2849Z" fill="#AEDDFF"/>
    <path d="M45.0206 79.2489L32.6301 103.761C31.9162 102.876 31.3209 101.893 30.8988 100.791L43.7475 75.3731L37.7227 57.0311L39.6452 53.678L53.9542 97.2403L51.8971 100.184L45.0206 79.2489ZM83.2331 66.6972L107.745 79.0877C107.795 77.9523 107.664 76.8161 107.378 75.6701L81.96 62.8214L75.9352 44.4794L72.3988 42.9194L86.7078 86.4817L90.1097 87.6322L83.2331 66.6972Z" fill="#00A6ED"/>
</svg>
