<svg width="16" height="16" viewBox="0 0 16 16" fill="none" xmlns="http://www.w3.org/2000/svg">
<path d="M6.9993 1.00002L6.9993 12.17L2.1193 7.29002C1.7293 6.90002 1.0893 6.90002 0.699298 7.29002C0.309298 7.68002 0.309298 8.31002 0.699298 8.70002L7.2893 15.29C7.6793 15.68 8.3093 15.68 8.6993 15.29L15.2993 8.71002C15.6893 8.32002 15.6893 7.69002 15.2993 7.30002C14.9093 6.91002 14.2793 6.91002 13.8893 7.30002L8.9993 12.17L8.9993 1.00002C8.9993 0.45002 8.5493 2.00272e-05 7.9993 2.00272e-05C7.4493 2.00272e-05 6.9993 0.45002 6.9993 1.00002Z" fill="#FF5252"/>
</svg>
