<svg width="160" height="132" viewBox="0 0 160 132" fill="none" xmlns="http://www.w3.org/2000/svg">
    <g opacity="0.4" clip-path="url(#clip0)">
        <path d="M159.011 101.342V101.842C155.01 116.845 140.008 125.346 125.005 121.346L119.505 119.845L121.005 125.346C125.006 140.349 116.004 155.351 101.502 159.351H101.002C85.9994 163.352 70.9972 154.351 66.9965 139.848L65.4962 134.347L61.4955 138.348C50.4937 149.35 32.9908 149.35 22.4894 138.348L21.9894 137.848C10.9876 126.846 10.9876 109.344 21.9894 98.3418L25.9901 94.3411L20.4894 92.8407C5.48688 88.84 -3.01419 73.8379 0.986172 58.8354V58.3354C4.98688 43.8332 19.989 35.3318 34.9915 39.3325L39.9922 40.8329L38.9922 35.3321C34.9915 20.3297 43.993 5.32752 58.4954 1.3268H58.9954C73.9979 -2.67391 89.0001 6.32752 93.0008 20.83L94.5011 26.3307L98.5019 22.33C109.504 11.3282 127.006 11.3282 138.008 22.33L138.508 22.83C149.51 33.8318 149.51 51.3347 138.508 61.8361L134.508 65.8368L140.008 67.3372C154.51 71.3375 163.011 86.34 159.011 101.342Z" fill="#4DB3D0"/>
        <path d="M79.9988 110.341C96.5699 110.341 110.003 96.9078 110.003 80.3367C110.003 63.7656 96.5699 50.332 79.9988 50.332C63.4277 50.332 49.9941 63.7656 49.9941 80.3367C49.9941 96.9078 63.4277 110.341 79.9988 110.341Z" fill="#4C241D"/>
        <path d="M79.9983 100.84C91.3219 100.84 100.502 91.6602 100.502 80.3366C100.502 69.013 91.3219 59.8334 79.9983 59.8334C68.6747 59.8334 59.4951 69.013 59.4951 80.3366C59.4951 91.6602 68.6747 100.84 79.9983 100.84Z" fill="#FFC850"/>
    </g>
    <defs>
        <clipPath id="clip0">
            <rect width="160" height="160" fill="white" transform="translate(0 0.336792)"/>
        </clipPath>
    </defs>
</svg>
