<svg width="128" height="136" viewBox="0 0 128 136" fill="none" xmlns="http://www.w3.org/2000/svg">
    <g opacity="0.4" clip-path="url(#clip0)">
        <path d="M127.011 76.7406V77.2406C123.01 92.2431 108.008 100.744 93.0054 96.7438L87.5047 95.2435L89.0051 100.744C93.0058 115.747 84.0044 130.749 69.5019 134.75H69.0019C53.9994 138.75 38.9972 129.749 34.9965 115.246L33.4962 109.746L29.4955 113.746C18.4937 124.748 0.990814 124.748 -9.51062 113.746L-10.0106 113.246C-21.0124 102.245 -21.0124 84.7417 -10.0106 73.7399L-6.0099 69.7392L-11.5106 68.2388C-26.5131 64.2381 -35.0142 49.236 -31.0138 34.2335V33.7335C-27.0131 19.2313 -12.011 10.7299 2.99152 14.7306L7.99224 16.231L6.99223 10.7303C2.99152 -4.27224 11.993 -19.2744 26.4954 -23.2751H26.9954C41.9979 -27.2758 57.0001 -18.2744 61.0008 -3.77188L62.5011 1.72883L66.5019 -2.27188C77.5036 -13.2737 95.0065 -13.2737 106.008 -2.27188L106.508 -1.77188C117.51 9.2299 117.51 26.7328 106.508 37.2342L102.508 41.2349L108.008 42.7353C122.51 46.7356 131.011 61.7381 127.011 76.7406Z" fill="#8BE5B8"/>
        <path d="M47.9988 85.7399C64.5699 85.7399 78.0034 72.3063 78.0034 55.7352C78.0034 39.1641 64.5699 25.7306 47.9988 25.7306C31.4277 25.7306 17.9941 39.1641 17.9941 55.7352C17.9941 72.3063 31.4277 85.7399 47.9988 85.7399Z" fill="#4C241D"/>
        <path d="M47.9983 76.2383C59.3219 76.2383 68.5015 67.0587 68.5015 55.7351C68.5015 44.4115 59.3219 35.2319 47.9983 35.2319C36.6747 35.2319 27.4951 44.4115 27.4951 55.7351C27.4951 67.0587 36.6747 76.2383 47.9983 76.2383Z" fill="#FFDF74"/>
    </g>
    <defs>
        <clipPath id="clip0">
            <rect width="160" height="160" fill="white" transform="translate(-32 -24.2646)"/>
        </clipPath>
    </defs>
</svg>
