<svg width="110" height="161" viewBox="0 0 110 161" fill="none" xmlns="http://www.w3.org/2000/svg">
    <g opacity="0.4" clip-path="url(#clip0)">
        <path d="M159.584 101.342V101.842C155.583 116.845 140.581 125.346 125.579 121.346L120.078 119.845L121.578 125.346C125.579 140.348 116.578 155.351 102.075 159.351H101.575C86.5726 163.352 71.5705 154.351 67.5698 139.848L66.0694 134.347L62.0687 138.348C51.0669 149.35 33.5641 149.35 23.0626 138.348L22.5626 137.848C11.5608 126.846 11.5608 109.343 22.5626 98.3417L26.5633 94.341L21.0626 92.8406C6.06013 88.8399 -2.44095 73.8378 1.55941 58.8353V58.3353C5.56013 43.8331 20.5623 35.3317 35.5648 39.3324L40.5655 40.8328L39.5655 35.3321C35.5648 20.3296 44.5662 5.32743 59.0687 1.32671H59.5687C74.5712 -2.674 89.5733 6.32743 93.574 20.8299L95.0744 26.3306L99.0751 22.3299C110.077 11.3281 127.58 11.3281 138.582 22.3299L139.082 22.8299C150.083 33.8317 150.083 51.3346 139.082 61.836L135.081 65.8367L140.582 67.3371C155.083 71.3374 163.585 86.3399 159.584 101.342Z" fill="#BAB7FF"/>
        <path d="M80.572 110.341C97.1431 110.341 110.577 96.9078 110.577 80.3367C110.577 63.7656 97.1431 50.3321 80.572 50.3321C64.0009 50.3321 50.5674 63.7656 50.5674 80.3367C50.5674 96.9078 64.0009 110.341 80.572 110.341Z" fill="#4C241D"/>
        <path d="M80.5716 100.84C91.8952 100.84 101.075 91.6601 101.075 80.3365C101.075 69.0129 91.8952 59.8333 80.5716 59.8333C69.248 59.8333 60.0684 69.0129 60.0684 80.3365C60.0684 91.6601 69.248 100.84 80.5716 100.84Z" fill="#FFDF74"/>
    </g>
    <defs>
        <clipPath id="clip0">
            <rect width="160" height="160" fill="white" transform="translate(0.573242 0.336792)"/>
        </clipPath>
    </defs>
</svg>
