<svg width="17" height="22" viewBox="0 0 17 22" fill="none" xmlns="http://www.w3.org/2000/svg">
    <path d="M13.42 17.5718V19.0584C13.42 19.9504 12.6882 20.6594 11.8191 20.6594H5.2323C4.34034 20.6594 3.63135 19.9275 3.63135 19.0584V17.5718" fill="#FCD133"/>
    <path d="M13.42 17.5718V19.0584C13.42 19.9504 12.6882 20.6594 11.8191 20.6594H5.2323C4.34034 20.6594 3.63135 19.9275 3.63135 19.0584V17.5718" stroke="#47261F" stroke-width="0.914511" stroke-miterlimit="10" stroke-linecap="round"/>
    <path d="M14.815 2.06549C14.815 1.08205 14.0145 0.304443 13.0539 0.304443C12.0705 0.304443 11.2929 1.10492 11.2929 2.06549C11.2929 2.54578 11.4758 2.98032 11.796 3.30052L10.6067 7.37152C10.4695 7.82893 10.744 8.30922 11.2014 8.44644C11.2929 8.46931 11.3615 8.49218 11.453 8.49218C11.8189 8.49218 12.1848 8.2406 12.2992 7.87467L13.4885 3.80367C14.2203 3.59784 14.815 2.88884 14.815 2.06549Z" fill="#47261F"/>
    <path d="M13.8317 14.0497H3.21965C2.14472 14.0497 1.27563 13.2493 1.27563 12.2887C1.27563 11.3281 2.14472 10.5276 3.21965 10.5276H13.8088C14.8837 10.5276 15.7528 11.3281 15.7528 12.2887C15.7757 13.2493 14.8837 14.0497 13.8317 14.0497Z" fill="#FCD133" stroke="#47261F" stroke-width="0.914511" stroke-miterlimit="10" stroke-linecap="round"/>
    <path d="M14.1059 10.5277H2.94498C1.96153 10.5277 1.13818 9.79586 1.13818 8.92677V6.77692H15.9127V8.92677C15.9127 9.79586 15.0894 10.5277 14.1059 10.5277Z" fill="#FCD133" stroke="#47261F" stroke-width="0.914511" stroke-miterlimit="10" stroke-linecap="round"/>
    <path d="M13.3512 17.5718H3.69977C2.7392 17.5718 1.93872 16.7714 1.93872 15.8108C1.93872 14.8502 2.7392 14.0497 3.69977 14.0497H13.3284C14.2889 14.0497 15.0894 14.8502 15.0894 15.8108C15.1123 16.7942 14.3118 17.5718 13.3512 17.5718Z" fill="#FCD133" stroke="#47261F" stroke-width="0.914511" stroke-miterlimit="10" stroke-linecap="round"/>
    <path d="M8.54906 6.297C8.54906 6.04542 8.50332 5.81671 8.00016 5.81671H5.46151C4.95835 5.81671 4.84399 6.02255 4.84399 6.297V16.8176C4.84399 17.3207 5.25567 17.7324 5.75883 17.7324C6.26198 17.7324 6.67366 17.3207 6.67366 16.8176V13.2955C6.67366 13.7986 7.08533 14.2103 7.58849 14.2103C8.09165 14.2103 8.50332 13.7986 8.50332 13.2955V6.297H8.54906Z" fill="#FCD133"/>
</svg>
