<svg width="45" height="44" viewBox="0 0 45 44" fill="none" xmlns="http://www.w3.org/2000/svg">
<g clip-path="url(#clip0_201_2)">
<path d="M22.5 44C34.6503 44 44.5 34.1503 44.5 22C44.5 9.84974 34.6503 0 22.5 0C10.3497 0 0.5 9.84974 0.5 22C0.5 34.1503 10.3497 44 22.5 44Z" fill="#8BC34A"/>
<path d="M14.8167 26.1262H14.9697C15.8291 26.1262 16.5273 26.0054 17.0645 25.7637C17.6016 25.522 18.0151 25.197 18.3052 24.7888C18.5952 24.3806 18.7939 23.9214 18.9014 23.4111C19.0088 22.8955 19.0625 22.3665 19.0625 21.824V20.0273C19.0625 19.4956 19.0007 19.0229 18.8772 18.6094C18.759 18.1958 18.5925 17.8494 18.3777 17.5701C18.1682 17.2908 17.9292 17.0786 17.6606 16.9336C17.3921 16.7886 17.1074 16.7161 16.8066 16.7161C16.4629 16.7161 16.1541 16.7859 15.8801 16.9255C15.6116 17.0598 15.3833 17.2505 15.1953 17.4976C15.0127 17.7446 14.873 18.0347 14.7764 18.3677C14.6797 18.7007 14.6313 19.0632 14.6313 19.4553C14.6313 19.8044 14.6743 20.1428 14.7603 20.4705C14.8462 20.7981 14.9778 21.0935 15.155 21.3567C15.3323 21.6199 15.5525 21.8293 15.8157 21.9851C16.0842 22.1355 16.3984 22.2107 16.7583 22.2107C17.0913 22.2107 17.4028 22.1462 17.6929 22.0173C17.9883 21.8831 18.2488 21.7031 18.4744 21.4775C18.7053 21.2466 18.8879 20.9861 19.0222 20.696C19.1619 20.406 19.2424 20.1025 19.2639 19.7856H19.9729C19.9729 20.2314 19.8843 20.6719 19.707 21.1069C19.5352 21.5366 19.2935 21.9287 18.9819 22.2832C18.6704 22.6377 18.3052 22.9224 17.8862 23.1372C17.4673 23.3467 17.0107 23.4514 16.5166 23.4514C15.9365 23.4514 15.4343 23.3386 15.01 23.113C14.5857 22.8875 14.2366 22.5867 13.9626 22.2107C13.6941 21.8347 13.4927 21.4158 13.3584 20.9539C13.2295 20.4866 13.165 20.0139 13.165 19.5359C13.165 18.9773 13.2429 18.4536 13.3987 17.9648C13.5544 17.4761 13.7854 17.0464 14.0916 16.6758C14.3977 16.2998 14.7764 16.0071 15.2275 15.7976C15.6841 15.5881 16.2104 15.4834 16.8066 15.4834C17.478 15.4834 18.05 15.6177 18.5227 15.8862C18.9954 16.1548 19.3794 16.5146 19.6748 16.9658C19.9756 17.417 20.1958 17.9246 20.3354 18.4885C20.4751 19.0525 20.5449 19.6326 20.5449 20.2288V20.7686C20.5449 21.3755 20.5046 21.9932 20.4241 22.6216C20.3489 23.2446 20.2012 23.8408 19.981 24.4102C19.7661 24.9795 19.4519 25.4897 19.0383 25.9409C18.6248 26.3867 18.085 26.7412 17.4189 27.0044C16.7583 27.2622 15.9419 27.3911 14.9697 27.3911H14.8167V26.1262ZM32.262 23.4272V24.6519H23.7864V23.7737L29.0393 15.6445H30.2559L28.9507 17.9971L25.4783 23.4272H32.262ZM30.6265 15.6445V27.375H29.136V15.6445H30.6265Z" fill="white"/>
</g>
<defs>
<clipPath id="clip0_201_2">
<rect width="45" height="44" fill="white"/>
</clipPath>
</defs>
</svg>
