<svg width="70" height="71" viewBox="0 0 70 71" fill="none" xmlns="http://www.w3.org/2000/svg">
<path d="M70 35.5C70 54.8301 54.3301 70.5 35 70.5C15.6699 70.5 0 54.8301 0 35.5C0 16.1699 15.6699 0.5 35 0.5C54.3301 0.5 70 16.1699 70 35.5Z" fill="#F3828D"/>
<path d="M24.7114 55.5021C24.7114 55.5021 29.0919 57.1431 34.9999 57.1431C40.9079 57.1431 45.2884 55.5021 45.2884 55.5021" stroke="#373535" stroke-width="3.44907" stroke-miterlimit="10" stroke-linecap="round"/>
<path d="M22.3576 35.873C22.3576 38.9787 20.8649 41.4985 19.0252 41.4985C17.1837 41.4985 15.691 38.9787 15.691 35.873C15.691 32.7673 17.1837 30.2475 19.0252 30.2475C20.8649 30.2475 22.3576 32.7673 22.3576 35.873Z" fill="#373535"/>
<path d="M54.3089 35.873C54.3089 38.9787 52.8162 41.4985 50.9748 41.4985C49.135 41.4985 47.6423 38.9787 47.6423 35.873C47.6423 32.7673 49.135 30.2475 50.9748 30.2475C52.8162 30.2475 54.3089 32.7673 54.3089 35.873Z" fill="#373535"/>
</svg>
