<svg width="70" height="70" viewBox="0 0 70 70" fill="none" xmlns="http://www.w3.org/2000/svg">
<path d="M70 35C70 54.3301 54.3301 70 35 70C15.6699 70 0 54.3301 0 35C0 15.6699 15.6699 0 35 0C54.3301 0 70 15.6699 70 35Z" fill="#FEC047"/>
<path d="M22.358 30.6928C22.358 33.7986 20.8653 36.3184 19.0238 36.3184C17.1841 36.3184 15.6914 33.7986 15.6914 30.6928C15.6914 27.5854 17.1841 25.0673 19.0238 25.0673C20.8653 25.0673 22.358 27.5854 22.358 30.6928Z" stroke="#373535" stroke-width="1.72454" stroke-miterlimit="10"/>
<path d="M54.3093 30.6928C54.3093 33.7986 52.8166 36.3184 50.9751 36.3184C49.1354 36.3184 47.6427 33.7986 47.6427 30.6928C47.6427 27.5854 49.1354 25.0673 50.9751 25.0673C52.8166 25.0673 54.3093 27.5854 54.3093 30.6928Z" fill="#373535"/>
<path d="M54.3093 30.6928C54.3093 33.7986 52.8166 36.3184 50.9751 36.3184C49.1354 36.3184 47.6427 33.7986 47.6427 30.6928C47.6427 27.5854 49.1354 25.0673 50.9751 25.0673C52.8166 25.0673 54.3093 27.5854 54.3093 30.6928Z" stroke="#373535" stroke-width="1.72454" stroke-miterlimit="10"/>
<path d="M22.358 30.6928C22.358 33.7986 20.8653 36.3184 19.0238 36.3184C17.1841 36.3184 15.6914 33.7986 15.6914 30.6928C15.6914 27.5854 17.1841 25.0673 19.0238 25.0673C20.8653 25.0673 22.358 27.5854 22.358 30.6928Z" fill="#373535"/>
<path d="M49.4961 49.333C45.8393 52.5747 40.7875 54.5801 35.2073 54.5801C29.4126 54.5801 24.1899 52.4195 20.5052 48.9563" stroke="#373535" stroke-width="5.83583" stroke-miterlimit="10" stroke-linecap="round"/>
</svg>
