<svg width="70" height="70" viewBox="0 0 70 70" fill="none" xmlns="http://www.w3.org/2000/svg">
<path d="M70 35C70 54.3301 54.3301 70 35 70C15.6699 70 0 54.3301 0 35C0 15.6699 15.6699 -1.21245e-06 35 -1.21245e-06C54.3301 -1.21245e-06 70 15.6699 70 35Z" fill="#5FB357"/>
<path d="M52.2836 41.8202C48.9233 48.0055 42.37 52.2046 34.835 52.2046C27.5407 52.2046 21.1653 48.2688 17.7161 42.4044" stroke="#373535" stroke-width="6.89814" stroke-miterlimit="10" stroke-linecap="round"/>
<path d="M22.9082 32.2998C22.9082 32.2998 29.9184 27.8792 29.9184 24.2085C29.9184 22.1055 28.75 19.5369 26.647 19.5369C24.5439 19.5369 22.9082 21.8718 22.9082 21.8718C22.9082 21.8718 21.2726 19.5369 19.1695 19.5369C17.0665 19.5369 15.8981 22.1055 15.8981 24.2085C15.8981 28.5698 22.9082 32.2998 22.9082 32.2998Z" fill="#292929"/>
<path d="M47.0924 32.2998C47.0924 32.2998 54.1025 28.2943 54.1025 24.2085C54.1025 22.1055 52.9342 19.5369 50.8311 19.5369C48.7281 19.5369 47.0924 21.8718 47.0924 21.8718C47.0924 21.8718 45.4567 19.5369 43.3537 19.5369C41.2506 19.5369 40.0823 22.1055 40.0823 24.2085C40.0823 28.017 47.0924 32.2998 47.0924 32.2998Z" fill="#292929"/>
</svg>
