<svg width="80" height="80" viewBox="0 0 80 80" fill="none" xmlns="http://www.w3.org/2000/svg">
<circle cx="40" cy="40" r="35" fill="#52B24F"/>
<path d="M22.5 52.5C32.7083 65.8333 47.2917 65.8333 57.5 52.5" stroke="black" stroke-width="3.75" stroke-linecap="round"/>
<path d="M62.3495 30.9749C62.2486 30.5801 62.0929 30.2015 61.887 29.8499C61.6892 29.4842 61.4362 29.1512 61.137 28.8625C60.7033 28.4302 60.1896 28.0863 59.6246 27.8501C58.4874 27.3833 57.2121 27.3833 56.0748 27.8501C55.5408 28.0761 55.0502 28.3933 54.6249 28.7875L54.5624 28.8625L53.75 29.6749L52.9375 28.8625L52.8751 28.7875C52.4498 28.3933 51.9592 28.0761 51.4251 27.8501C50.2879 27.3833 49.0126 27.3833 47.8754 27.8501C47.3104 28.0863 46.7967 28.4302 46.363 28.8625C45.7697 29.4397 45.3497 30.1714 45.1505 30.9749C45.0446 31.3829 44.9941 31.8033 45.0005 32.2248C45.0005 32.6223 45.0505 33.0172 45.1505 33.3997C45.2553 33.7872 45.4064 34.1607 45.6005 34.5121C45.8101 34.8734 46.0665 35.2054 46.363 35.4996L53.75 42.8866L61.137 35.4996C61.4333 35.2096 61.687 34.8771 61.887 34.5121C62.2929 33.8186 62.5045 33.0284 62.4994 32.2248C62.5059 31.8033 62.4555 31.3828 62.3495 30.9749Z" fill="#F01926"/>
<path d="M34.8495 30.9749C34.7486 30.5801 34.5929 30.2015 34.387 29.8499C34.1892 29.4842 33.9362 29.1512 33.637 28.8625C33.2033 28.4302 32.6896 28.0863 32.1246 27.8501C30.9874 27.3833 29.7121 27.3833 28.5748 27.8501C28.0408 28.0761 27.5502 28.3933 27.1249 28.7875L27.0624 28.8625L26.25 29.6749L25.4375 28.8625L25.3751 28.7875C24.9498 28.3933 24.4592 28.0761 23.9251 27.8501C22.7879 27.3833 21.5126 27.3833 20.3754 27.8501C19.8104 28.0863 19.2967 28.4302 18.863 28.8625C18.2697 29.4397 17.8497 30.1714 17.6505 30.9749C17.5446 31.3829 17.4941 31.8033 17.5005 32.2248C17.5005 32.6223 17.5505 33.0172 17.6505 33.3997C17.7553 33.7872 17.9064 34.1607 18.1005 34.5121C18.3101 34.8734 18.5665 35.2054 18.863 35.4996L26.25 42.8866L33.637 35.4996C33.9333 35.2096 34.187 34.8771 34.387 34.5121C34.7929 33.8186 35.0045 33.0284 34.9994 32.2248C35.0059 31.8033 34.9555 31.3828 34.8495 30.9749Z" fill="#F01926"/>
</svg>
