<svg width="133" height="44" viewBox="0 0 133 44" fill="none" xmlns="http://www.w3.org/2000/svg">
<rect x="2.54297" width="127.25" height="44" rx="4" fill="white"/>
<path d="M31.5836 34.5732V37.4172C31.5836 39.1235 30.1835 40.4799 28.5209 40.4799H15.9201C14.2138 40.4799 12.8574 39.0798 12.8574 37.4172V34.5732" fill="#FCD133"/>
<path d="M31.5836 34.5732V37.4172C31.5836 39.1235 30.1835 40.4799 28.5209 40.4799H15.9201C14.2138 40.4799 12.8574 39.0798 12.8574 37.4172V34.5732" stroke="#212121" stroke-width="1.7495" stroke-miterlimit="10" stroke-linecap="round"/>
<path d="M34.2531 4.90901C34.2531 3.02763 32.7217 1.54004 30.8841 1.54004C29.0028 1.54004 27.5152 3.07139 27.5152 4.90901C27.5152 5.82781 27.8652 6.65912 28.4777 7.27166L26.2026 15.0597C25.9401 15.9347 26.4651 16.8535 27.3401 17.116C27.5152 17.1598 27.6464 17.2035 27.8214 17.2035C28.5215 17.2035 29.2215 16.7223 29.4403 16.0222L31.7154 8.23422C33.1155 7.84044 34.2531 6.48411 34.2531 4.90901Z" fill="#212121"/>
<path d="M32.3719 27.8356H12.0706C10.0142 27.8356 8.35156 26.3042 8.35156 24.4666C8.35156 22.629 10.0142 21.0977 12.0706 21.0977H32.3281C34.3845 21.0977 36.0471 22.629 36.0471 24.4666C36.0908 26.3042 34.3845 27.8356 32.3719 27.8356Z" fill="#FCD133" stroke="#212121" stroke-width="1.7495" stroke-miterlimit="10" stroke-linecap="round"/>
<path d="M32.8957 21.0973H11.5444C9.66299 21.0973 8.08789 19.6972 8.08789 18.0346V13.9219H36.3522V18.0346C36.3522 19.6972 34.7771 21.0973 32.8957 21.0973Z" fill="#FCD133" stroke="#212121" stroke-width="1.7495" stroke-miterlimit="10" stroke-linecap="round"/>
<path d="M31.4518 34.5734H12.9881C11.1505 34.5734 9.61914 33.042 9.61914 31.2044C9.61914 29.3668 11.1505 27.8354 12.9881 27.8354H31.408C33.2457 27.8354 34.777 29.3668 34.777 31.2044C34.8208 33.0858 33.2894 34.5734 31.4518 34.5734Z" fill="#FCD133" stroke="#212121" stroke-width="1.7495" stroke-miterlimit="10" stroke-linecap="round"/>
<path d="M22.2637 13.0033C22.2637 12.522 22.1762 12.0845 21.2137 12.0845H16.3571C15.3945 12.0845 15.1758 12.4782 15.1758 13.0033V33.1296C15.1758 34.0921 15.9633 34.8797 16.9259 34.8797C17.8885 34.8797 18.676 34.0921 18.676 33.1296V26.3916C18.676 27.3542 19.4636 28.1418 20.4261 28.1418C21.3887 28.1418 22.1762 27.3542 22.1762 26.3916V13.0033H22.2637Z" fill="#FCD133"/>
<path d="M75.5836 34.5732V37.4172C75.5836 39.1235 74.1835 40.4799 72.5209 40.4799H59.9201C58.2138 40.4799 56.8574 39.0798 56.8574 37.4172V34.5732" fill="#FCD133"/>
<path d="M75.5836 34.5732V37.4172C75.5836 39.1235 74.1835 40.4799 72.5209 40.4799H59.9201C58.2138 40.4799 56.8574 39.0798 56.8574 37.4172V34.5732" stroke="#212121" stroke-width="1.7495" stroke-miterlimit="10" stroke-linecap="round"/>
<path d="M78.2531 4.90901C78.2531 3.02763 76.7217 1.54004 74.8841 1.54004C73.0028 1.54004 71.5152 3.07139 71.5152 4.90901C71.5152 5.82781 71.8652 6.65912 72.4777 7.27166L70.2026 15.0597C69.9401 15.9347 70.4651 16.8535 71.3401 17.116C71.5152 17.1598 71.6464 17.2035 71.8214 17.2035C72.5215 17.2035 73.2215 16.7223 73.4403 16.0222L75.7154 8.23422C77.1155 7.84044 78.2531 6.48411 78.2531 4.90901Z" fill="#212121"/>
<path d="M76.3719 27.8356H56.0706C54.0142 27.8356 52.3516 26.3042 52.3516 24.4666C52.3516 22.629 54.0142 21.0977 56.0706 21.0977H76.3281C78.3845 21.0977 80.0471 22.629 80.0471 24.4666C80.0908 26.3042 78.3845 27.8356 76.3719 27.8356Z" fill="#FCD133" stroke="#212121" stroke-width="1.7495" stroke-miterlimit="10" stroke-linecap="round"/>
<path d="M76.8957 21.0973H55.5444C53.663 21.0973 52.0879 19.6972 52.0879 18.0346V13.9219H80.3522V18.0346C80.3522 19.6972 78.7771 21.0973 76.8957 21.0973Z" fill="#FCD133" stroke="#212121" stroke-width="1.7495" stroke-miterlimit="10" stroke-linecap="round"/>
<path d="M75.4518 34.5734H56.9881C55.1505 34.5734 53.6191 33.042 53.6191 31.2044C53.6191 29.3668 55.1505 27.8354 56.9881 27.8354H75.408C77.2457 27.8354 78.777 29.3668 78.777 31.2044C78.8208 33.0858 77.2894 34.5734 75.4518 34.5734Z" fill="#FCD133" stroke="#212121" stroke-width="1.7495" stroke-miterlimit="10" stroke-linecap="round"/>
<path d="M66.2637 13.0033C66.2637 12.522 66.1762 12.0845 65.2137 12.0845H60.3571C59.3945 12.0845 59.1758 12.4782 59.1758 13.0033V33.1296C59.1758 34.0921 59.9633 34.8797 60.9259 34.8797C61.8885 34.8797 62.676 34.0921 62.676 33.1296V26.3916C62.676 27.3542 63.4636 28.1418 64.4261 28.1418C65.3887 28.1418 66.1762 27.3542 66.1762 26.3916V13.0033H66.2637Z" fill="#FCD133"/>
<g opacity="0.2">
<path d="M119.584 34.5732V37.4172C119.584 39.1235 118.184 40.4799 116.521 40.4799H103.92C102.214 40.4799 100.857 39.0798 100.857 37.4172V34.5732" fill="#FCD133"/>
<path d="M119.584 34.5732V37.4172C119.584 39.1235 118.184 40.4799 116.521 40.4799H103.92C102.214 40.4799 100.857 39.0798 100.857 37.4172V34.5732" stroke="#212121" stroke-width="1.7495" stroke-miterlimit="10" stroke-linecap="round"/>
<path d="M122.253 4.90901C122.253 3.02763 120.722 1.54004 118.884 1.54004C117.003 1.54004 115.515 3.07139 115.515 4.90901C115.515 5.82781 115.865 6.65912 116.478 7.27166L114.203 15.0597C113.94 15.9347 114.465 16.8535 115.34 17.116C115.515 17.1598 115.646 17.2035 115.821 17.2035C116.521 17.2035 117.222 16.7223 117.44 16.0222L119.715 8.23422C121.116 7.84044 122.253 6.48411 122.253 4.90901Z" fill="#212121"/>
<path d="M120.372 27.8356H100.071C98.0142 27.8356 96.3516 26.3042 96.3516 24.4666C96.3516 22.629 98.0142 21.0977 100.071 21.0977H120.328C122.384 21.0977 124.047 22.629 124.047 24.4666C124.091 26.3042 122.384 27.8356 120.372 27.8356Z" fill="#FCD133" stroke="#212121" stroke-width="1.7495" stroke-miterlimit="10" stroke-linecap="round"/>
<path d="M120.896 21.0973H99.5444C97.663 21.0973 96.0879 19.6972 96.0879 18.0346V13.9219H124.352V18.0346C124.352 19.6972 122.777 21.0973 120.896 21.0973Z" fill="#FCD133" stroke="#212121" stroke-width="1.7495" stroke-miterlimit="10" stroke-linecap="round"/>
<path d="M119.452 34.5734H100.988C99.1505 34.5734 97.6191 33.042 97.6191 31.2044C97.6191 29.3668 99.1505 27.8354 100.988 27.8354H119.408C121.246 27.8354 122.777 29.3668 122.777 31.2044C122.821 33.0858 121.289 34.5734 119.452 34.5734Z" fill="#FCD133" stroke="#212121" stroke-width="1.7495" stroke-miterlimit="10" stroke-linecap="round"/>
<path d="M110.264 13.0033C110.264 12.522 110.176 12.0845 109.214 12.0845H104.357C103.395 12.0845 103.176 12.4782 103.176 13.0033V33.1296C103.176 34.0921 103.963 34.8797 104.926 34.8797C105.888 34.8797 106.676 34.0921 106.676 33.1296V26.3916C106.676 27.3542 107.464 28.1418 108.426 28.1418C109.389 28.1418 110.176 27.3542 110.176 26.3916V13.0033H110.264Z" fill="#FCD133"/>
</g>
</svg>
