<svg width="33" height="32" viewBox="0 0 33 32" fill="none" xmlns="http://www.w3.org/2000/svg">
<path d="M11.2655 12.245V14.2427C11.2655 14.4414 11.3444 14.6319 11.4849 14.7724C11.6254 14.9129 11.8159 14.9918 12.0146 14.9918C12.2133 14.9918 12.4038 14.9129 12.5443 14.7724C12.6848 14.6319 12.7637 14.4414 12.7637 14.2427V12.245H14.7614C14.9601 12.245 15.1506 12.1661 15.2911 12.0256C15.4316 11.8851 15.5105 11.6946 15.5105 11.4959C15.5105 11.2972 15.4316 11.1067 15.2911 10.9662C15.1506 10.8257 14.9601 10.7468 14.7614 10.7468H12.7637V8.74912C12.7637 8.55044 12.6848 8.3599 12.5443 8.21941C12.4038 8.07893 12.2133 8 12.0146 8C11.8159 8 11.6254 8.07893 11.4849 8.21941C11.3444 8.3599 11.2655 8.55044 11.2655 8.74912V10.7468H9.26781C9.06913 10.7468 8.87859 10.8257 8.7381 10.9662C8.59761 11.1067 8.51869 11.2972 8.51869 11.4959C8.51869 11.6946 8.59761 11.8851 8.7381 12.0256C8.87859 12.1661 9.06913 12.245 9.26781 12.245H11.2655ZM17.5082 11.4959C17.5082 11.2972 17.5871 11.1067 17.7276 10.9662C17.8681 10.8257 18.0586 10.7468 18.2573 10.7468H23.7509C23.9496 10.7468 24.1401 10.8257 24.2806 10.9662C24.4211 11.1067 24.5 11.2972 24.5 11.4959C24.5 11.6946 24.4211 11.8851 24.2806 12.0256C24.1401 12.1661 23.9496 12.245 23.7509 12.245H18.2573C18.0586 12.245 17.8681 12.1661 17.7276 12.0256C17.5871 11.8851 17.5082 11.6946 17.5082 11.4959ZM8.73843 18.268L10.9558 20.4854L8.73843 22.7028C8.66483 22.7714 8.6058 22.8541 8.56485 22.946C8.52391 23.0379 8.50189 23.1371 8.50012 23.2377C8.49834 23.3382 8.51684 23.4382 8.55452 23.5314C8.5922 23.6247 8.64828 23.7095 8.71941 23.7806C8.79055 23.8517 8.87528 23.9078 8.96856 23.9455C9.06184 23.9832 9.16175 24.0017 9.26234 23.9999C9.36292 23.9981 9.46212 23.9761 9.55401 23.9351C9.64591 23.8942 9.72861 23.8352 9.79719 23.7616L12.0146 21.5442L14.232 23.7616C14.374 23.8939 14.5618 23.9659 14.7559 23.9625C14.95 23.9591 15.1352 23.8805 15.2724 23.7432C15.4097 23.606 15.4883 23.4208 15.4917 23.2267C15.4951 23.0326 15.4231 22.8448 15.2908 22.7028L13.0734 20.4854L15.2908 18.268C15.3644 18.1994 15.4234 18.1167 15.4643 18.0248C15.5053 17.9329 15.5273 17.8337 15.5291 17.7331C15.5309 17.6326 15.5124 17.5326 15.4747 17.4394C15.437 17.3461 15.3809 17.2614 15.3098 17.1902C15.2386 17.1191 15.1539 17.063 15.0606 17.0253C14.9674 16.9876 14.8674 16.9691 14.7669 16.9709C14.6663 16.9727 14.5671 16.9947 14.4752 17.0357C14.3833 17.0766 14.3006 17.1356 14.232 17.2092L12.0146 19.4266L9.79719 17.2092C9.72861 17.1356 9.64591 17.0766 9.55401 17.0357C9.46212 16.9947 9.36292 16.9727 9.26234 16.9709C9.16175 16.9691 9.06184 16.9876 8.96856 17.0253C8.87528 17.063 8.79055 17.1191 8.71941 17.1902C8.64828 17.2614 8.5922 17.3461 8.55452 17.4394C8.51684 17.5326 8.49834 17.6326 8.50012 17.7331C8.50189 17.8337 8.52391 17.9329 8.56485 18.0248C8.6058 18.1167 8.66483 18.1994 8.73843 18.268ZM18.2573 19.7363C18.0586 19.7363 17.8681 19.8152 17.7276 19.9557C17.5871 20.0962 17.5082 20.2867 17.5082 20.4854C17.5082 20.6841 17.5871 20.8746 17.7276 21.0151C17.8681 21.1556 18.0586 21.2345 18.2573 21.2345H23.7509C23.9496 21.2345 24.1401 21.1556 24.2806 21.0151C24.4211 20.8746 24.5 20.6841 24.5 20.4854C24.5 20.2867 24.4211 20.0962 24.2806 19.9557C24.1401 19.8152 23.9496 19.7363 23.7509 19.7363H18.2573ZM22.0029 17.9883C22.0029 18.2532 21.8977 18.5073 21.7104 18.6946C21.5231 18.8819 21.269 18.9872 21.0041 18.9872C20.7392 18.9872 20.4851 18.8819 20.2978 18.6946C20.1105 18.5073 20.0053 18.2532 20.0053 17.9883C20.0053 17.7234 20.1105 17.4694 20.2978 17.282C20.4851 17.0947 20.7392 16.9895 21.0041 16.9895C21.269 16.9895 21.5231 17.0947 21.7104 17.282C21.8977 17.4694 22.0029 17.7234 22.0029 17.9883ZM21.0041 23.9813C21.269 23.9813 21.5231 23.8761 21.7104 23.6888C21.8977 23.5014 22.0029 23.2474 22.0029 22.9825C22.0029 22.7176 21.8977 22.4635 21.7104 22.2762C21.5231 22.0889 21.269 21.9837 21.0041 21.9837C20.7392 21.9837 20.4851 22.0889 20.2978 22.2762C20.1105 22.4635 20.0053 22.7176 20.0053 22.9825C20.0053 23.2474 20.1105 23.5014 20.2978 23.6888C20.4851 23.8761 20.7392 23.9813 21.0041 23.9813Z" fill="#FF5722"/>
<circle cx="16.5" cy="16" r="15.2" stroke="#FF5722" stroke-width="1.6"/>
</svg>
