<svg width="120" height="120" viewBox="0 0 120 120" fill="none" xmlns="http://www.w3.org/2000/svg">
    <path d="M59.028 15.742C60.8107 19.7938 58.2176 33.4076 58.2176 33.4076C58.2176 33.4076 46.0624 26.2765 44.2797 22.2248C42.4969 18.1731 44.2797 13.4731 48.3314 11.6903C52.3831 9.90755 57.2452 11.6903 59.028 15.742Z" fill="#83BF4F"/>
    <path d="M62.1074 34.2063H57.8936C57.8936 27.2373 61.7832 15.4062 77.3419 15.4062V19.6201C63.2418 19.6201 62.1074 32.9097 62.1074 34.2063Z" fill="#947151"/>
    <path d="M60.0001 33.3995C48.169 21.4064 13 20.9202 13 55.2788C13 76.9961 38.6069 108.275 49.7897 108.275C54.8139 108.275 56.5966 105.034 59.6759 105.034C62.5932 105.034 63.5656 108.275 70.0484 108.275C81.2311 108.275 107 77.1582 107 55.2788C107 20.9202 71.8311 21.4064 60.0001 33.3995Z" fill="#EF4D3C"/>
</svg>
