<svg width="120" height="120" viewBox="0 0 120 120" fill="none" xmlns="http://www.w3.org/2000/svg">
    <path d="M97.0839 24.9157C97.0839 24.9157 97.3292 25.3392 97.7339 26.138L97.8944 26.4548C97.9506 26.5677 98.0103 26.6746 98.071 26.8315L98.4477 27.8C98.5796 28.1481 98.7336 28.5383 98.8738 28.9316C99.0091 29.3173 99.1591 29.7287 99.304 30.1663C100.011 32.2778 100.574 34.4349 100.99 36.6225C101.478 39.1631 101.847 42.0813 101.962 45.2996C102.082 48.5175 101.922 52.0302 101.423 55.7259C101.371 56.1906 101.288 56.6511 101.214 57.1179L101.099 57.8203L101.041 58.1736L101.026 58.2622C101.1 58.0322 100.916 58.6259 100.933 58.5774L100.927 58.6138L100.903 58.7597C100.775 59.5402 100.62 60.3218 100.478 61.1165L100.464 61.191L100.441 61.2882L100.393 61.4832L100.295 61.8743C100.227 62.1355 100.159 62.3967 100.09 62.6578L99.6662 64.2385L99.5576 64.6349L99.4502 64.9972C99.3789 65.24 99.305 65.482 99.2286 65.7231L98.7698 67.1833C97.492 71.0783 95.8031 74.9968 93.7237 78.7892C91.6131 82.624 89.1489 86.2532 86.3634 89.6297C83.5707 93.0283 80.4516 96.1551 77.1378 98.9277C73.8244 101.702 70.3156 104.121 66.7463 106.128C63.1777 108.137 59.5594 109.742 56.047 110.967C54.2968 111.594 52.5553 112.088 50.8759 112.536C49.18 112.946 47.5482 113.319 45.9571 113.567L44.7848 113.765C44.3989 113.829 44.0091 113.865 43.6294 113.915C42.8685 114.01 42.1262 114.093 41.4036 114.165C40.6782 114.227 39.9689 114.267 39.283 114.304L38.2712 114.357C37.9397 114.375 37.6081 114.367 37.2857 114.373C35.9922 114.379 34.7942 114.385 33.6795 114.303C32.5672 114.233 31.5568 114.176 30.6402 114.049L29.3467 113.879L28.212 113.706C27.5083 113.58 26.9121 113.45 26.4312 113.345C25.4693 113.135 24.9615 112.994 24.9615 112.994C20.233 111.683 17.4632 106.786 18.7747 102.058C19.3438 99.9952 20.6408 98.2083 22.4257 97.0281L23.3028 96.4486C23.3028 96.4486 23.6752 96.2024 24.3639 95.7953C24.7082 95.592 25.1298 95.3406 25.6227 95.0713L26.405 94.5942L27.2852 94.0797C27.9061 93.74 28.5725 93.3033 29.2969 92.8824C30.024 92.4715 30.7835 91.9639 31.5949 91.4806C32.4056 90.9932 33.2386 90.4206 34.1197 89.8838C34.9816 89.2843 35.8958 88.7279 36.8079 88.0756L37.5017 87.598L37.8543 87.3632L38.2024 87.1099L38.9049 86.6002L39.6215 86.1004L40.3308 85.5617L41.0529 85.0319L41.4164 84.7655L41.7733 84.4808L42.4983 83.9222C44.4324 82.4147 46.388 80.7934 48.317 79.0616C50.2456 77.33 52.156 75.4987 53.9995 73.5662C55.8439 71.6349 57.6195 69.6034 59.3144 67.5104C62.6946 63.3154 65.7254 58.8526 68.3267 54.386L68.8028 53.546C68.8816 53.4063 68.9619 53.267 69.0457 53.1296L69.1697 52.9227L69.2719 52.7435L69.6818 52.034L69.8909 51.6811L69.9999 51.5061L70.0547 51.4188L70.082 51.3747L70.1144 51.3064C70.4639 50.5786 70.796 49.8543 71.1491 49.1468L71.2146 49.0139L71.231 48.9808C71.2555 48.9092 71.0789 49.4796 71.1596 49.2261L71.1855 49.1742L71.2896 48.9668L71.4979 48.5532L71.9112 47.7304C72.9923 45.5399 73.9901 43.3971 74.8637 41.3494C75.6799 39.4419 76.4583 37.5184 77.1983 35.58C77.8835 33.8041 78.4546 32.1983 78.9394 30.847C79.0551 30.5094 79.1774 30.187 79.2867 29.8825C79.395 29.5856 79.5005 29.3299 79.5972 29.0766L79.8693 28.3773C79.9164 28.279 79.9524 28.1435 79.9886 28.0252L80.0914 27.6852C80.3509 26.8282 80.5188 26.3684 80.5188 26.3684C82.2582 21.6063 87.5288 19.1562 92.2907 20.8957C94.3891 21.6616 96.044 23.1236 97.0839 24.9157Z" fill="#FFCE6C"/>
    <path d="M95.4548 48.0355C95.4548 48.0355 95.6027 48.7219 95.7522 49.9092C95.7717 50.0577 95.7929 50.2141 95.8095 50.3777L95.8372 50.6289L95.8503 50.9093C95.87 51.2927 95.8724 51.7072 95.8836 52.1547C95.8891 52.5992 95.8907 53.084 95.8783 53.5794L95.7772 55.1124C95.7088 56.1876 95.5231 57.3294 95.3143 58.5446C95.2681 58.8505 95.1955 59.1519 95.1251 59.4586L94.9034 60.3888C94.7482 61.0149 94.5975 61.6603 94.3827 62.2932C94.1785 62.9423 93.9661 63.5888 93.7456 64.2326C93.5018 64.8761 93.2359 65.5201 92.9697 66.171C92.8295 66.4929 92.7062 66.8255 92.5488 67.1414L92.085 68.0971L91.6098 69.0523C91.4553 69.3737 91.2808 69.6834 91.1017 69.991C90.7503 70.6086 90.3931 71.2228 90.0301 71.8335C89.6487 72.4248 89.2594 73.0109 88.8623 73.5918C88.4807 74.1772 88.0567 74.7253 87.6391 75.2662C87.216 75.803 86.8153 76.3456 86.3766 76.8432C85.5016 77.8405 84.6548 78.7983 83.7698 79.6292L83.1246 80.2499C82.9111 80.4516 82.7063 80.6549 82.487 80.8385C82.0502 81.2065 81.6402 81.5703 81.2276 81.9005C80.425 82.5819 79.6303 83.14 78.927 83.6285C78.573 83.8704 78.2471 84.1002 77.9347 84.2997C77.6439 84.4779 77.3506 84.6518 77.0547 84.8215C76.6419 85.0622 76.2233 85.2929 75.7994 85.5134C75.5051 85.6658 75.3446 85.7417 75.3446 85.7417C74.9772 85.9157 74.5642 85.9691 74.1646 85.8944C73.765 85.8198 73.3991 85.6208 73.1193 85.3259C72.8395 85.031 72.6599 84.6553 72.6062 84.2523C72.5526 83.8493 72.6276 83.4397 72.8205 83.0819L72.8538 83.0212L73.0881 82.5926C73.244 82.3174 73.4738 81.917 73.7797 81.4282C73.9297 81.1806 74.1021 80.9144 74.289 80.6256C74.4637 80.3249 74.6616 80.0104 74.8692 79.6726C75.286 78.9988 75.7796 78.2686 76.275 77.4449C76.5231 77.0332 76.8014 76.6247 77.0771 76.193C77.3462 75.7561 77.6171 75.3019 77.9061 74.8455C78.4975 73.9422 79.0618 72.9563 79.6829 71.9719C79.8436 71.7292 79.9874 71.4731 80.1346 71.2169L80.5876 70.4503L81.0538 69.6815C81.2121 69.4253 81.3507 69.1563 81.5035 68.8947C81.7987 68.3649 82.113 67.8421 82.4185 67.3121C82.7071 66.7721 83.0016 66.2351 83.302 65.7015C83.6134 65.1725 83.8741 64.6199 84.1641 64.0835C84.4479 63.5445 84.749 63.0155 85.004 62.4715C85.2715 61.9377 85.5436 61.4063 85.8204 60.8773C86.0657 60.3486 86.3184 59.8234 86.5787 59.3019C86.8458 58.7893 87.0668 58.271 87.3022 57.7677L87.655 57.0211C87.776 56.7807 87.889 56.5362 87.9938 56.2883C88.1998 55.8132 88.4116 55.3405 88.629 54.8705C88.8583 54.4163 89.029 53.9637 89.2142 53.5318L89.7656 52.2897C89.9413 51.9 90.0773 51.5355 90.2327 51.1872C90.3882 50.8408 90.5256 50.512 90.6699 50.2082L90.7741 49.9837L90.8639 49.7475C90.921 49.5935 90.981 49.4473 91.0372 49.3085C91.4803 48.1967 91.7957 47.5693 91.7957 47.5693C92.0287 47.1059 92.4362 46.7541 92.9286 46.5912C93.421 46.4283 93.9579 46.4676 94.4213 46.7006C94.9684 46.9748 95.3322 47.4812 95.4548 48.0355Z" fill="#FFDF95"/>
    <path d="M24.1798 105.203C24.4534 107.932 23.7675 108.699 20.9605 108.981C18.1535 109.262 17.3291 108.646 17.0555 105.918C16.7819 103.189 17.4679 102.422 20.2748 102.14C23.0818 101.859 23.9063 102.475 24.1798 105.203Z" fill="#8E6049"/>
    <path d="M89.2982 25.5917C90.7978 25.4415 91.908 23.9349 91.8844 22.1053C91.8185 16.9606 95.7754 8.9718 90.3202 6.18149C83.8623 2.87813 78.7852 7.41618 78.4884 8.69991C77.5851 12.6061 84.4758 13.2363 86.6493 24.1635C86.8793 25.3182 88.2882 25.6929 89.2982 25.5917Z" fill="#966C5A"/>
</svg>
