<svg width="120" height="120" viewBox="0 0 120 120" fill="none" xmlns="http://www.w3.org/2000/svg">
    <path d="M49.0282 18.115C51.2955 23.4583 52.3932 30.3823 52.8749 34.4285C53.1023 36.3408 54.7282 37.7781 56.6539 37.7731L57.6343 37.7706C59.8999 37.765 61.6562 35.7894 61.3967 33.5386L59.2226 14.6984C58.9201 12.0776 56.1029 10.5565 53.7458 11.7412L50.8089 13.2173C49.0118 14.1206 48.2427 16.2633 49.0282 18.115Z" fill="#6F2206"/>
    <path d="M95.2446 39.6526C73.9494 12.746 20.0323 24.3045 16.4283 61.041C12.4218 101.88 46.5084 111.574 69.2682 108.136C92.8601 104.573 121.379 72.6736 95.2446 39.6526Z" fill="#FC9413"/>
    <path d="M95.1814 70.4546C95.1866 71.0851 94.6795 71.5998 94.0492 71.6049C93.419 71.61 92.9043 71.1032 92.8991 70.4729C92.8943 69.8426 93.4006 69.3278 94.0309 69.3226C94.6611 69.3175 95.1765 69.8243 95.1814 70.4546Z" fill="#EC791F"/>
    <path d="M57.8787 91.7983C57.8836 92.4288 57.3767 92.9435 56.7467 92.9486C56.1162 92.9537 55.601 92.4469 55.5959 91.8167C55.591 91.1864 56.0979 90.6714 56.7279 90.6664C57.3584 90.6612 57.8735 91.168 57.8787 91.7983Z" fill="#EC791F"/>
    <path d="M54.6356 77.822C54.6405 78.4523 54.1336 78.967 53.5036 78.9721C52.8731 78.977 52.3582 78.4702 52.3533 77.8399C52.3482 77.2099 52.8547 76.6948 53.4848 76.6899C54.1153 76.6845 54.6305 77.1916 54.6356 77.822Z" fill="#EC791F"/>
    <path d="M71.2351 75.2983C71.2403 75.9286 70.7332 76.4436 70.1029 76.4487C69.4727 76.4538 68.958 75.9469 68.9528 75.3164C68.9477 74.6864 69.4543 74.1715 70.0846 74.1664C70.7148 74.1613 71.2303 74.668 71.2351 75.2983Z" fill="#EC791F"/>
    <path d="M26.1219 77.6421C26.1268 78.2726 25.6202 78.7873 24.9899 78.7924C24.3597 78.7975 23.8445 78.2907 23.8396 77.6604C23.8345 77.0302 24.3413 76.5152 24.9716 76.5101C25.6018 76.505 26.1168 77.0118 26.1219 77.6421Z" fill="#EC791F"/>
    <path d="M86.7898 75.2436C86.795 75.8741 86.2879 76.3889 85.6576 76.394C85.0274 76.3991 84.5127 75.8922 84.5075 75.262C84.5027 74.6317 85.0093 74.1168 85.6393 74.1117C86.2698 74.1066 86.7849 74.6133 86.7898 75.2436Z" fill="#EC791F"/>
    <path d="M80.6175 68.0824C80.62 68.3974 80.3664 68.6552 80.0515 68.658C79.7362 68.6603 79.4787 68.4069 79.4762 68.0919C79.4736 67.7766 79.727 67.5192 80.0421 67.5168C80.3573 67.514 80.615 67.7674 80.6175 68.0824Z" fill="#EC791F"/>
    <path d="M42.6749 86.903C42.6775 87.2183 42.4241 87.4757 42.1091 87.4783C41.794 87.4806 41.5364 87.2274 41.5338 86.9124C41.5312 86.5969 41.7846 86.3395 42.0999 86.3371C42.4149 86.3346 42.6724 86.588 42.6749 86.903Z" fill="#EC791F"/>
    <path d="M36.485 75.9497C36.4875 76.2647 36.2339 76.5224 35.9189 76.5252C35.6039 76.5275 35.3464 76.2741 35.3438 75.9591C35.341 75.6439 35.5947 75.3863 35.9097 75.384C36.2247 75.3813 36.4822 75.6347 36.485 75.9497Z" fill="#EC791F"/>
    <path d="M76.4984 87.0902C76.5009 87.4052 76.2473 87.663 75.9323 87.6658C75.617 87.6681 75.3596 87.4147 75.357 87.0997C75.3545 86.7844 75.6079 86.527 75.9231 86.5246C76.2381 86.5219 76.4958 86.7752 76.4984 87.0902Z" fill="#EC791F"/>
    <path d="M68.6808 82.8952C68.6834 83.2104 68.4297 83.4679 68.1147 83.4705C67.7997 83.4728 67.5422 83.2196 67.5397 82.9046C67.5371 82.5891 67.7905 82.3317 68.1058 82.3293C68.4208 82.3268 68.6783 82.5802 68.6808 82.8952Z" fill="#EC791F"/>
    <path d="M31.9074 43.8094C26.3286 39.7543 41.6556 29.7103 44.627 34.9084C47.5982 40.1062 36.0999 46.8573 31.9074 43.8094Z" fill="#F8B122"/>
    <path d="M18.0786 81.5629C25.3202 105.171 50.9586 110.903 69.2679 108.137C89.8579 105.028 114.199 80.334 102.687 52.1484C98.0784 108.514 42.7879 108.588 18.0786 81.5629Z" fill="#FC8513"/>
    <path d="M60.2186 26.0036L78.4194 11.9453C78.4194 11.9453 70.2993 8.30055 64.5214 12.7633C58.7432 17.2262 60.2186 26.0036 60.2186 26.0036Z" fill="#9DCA4D"/>
    <path d="M60.219 26.0045L78.4197 11.9463C78.4197 11.9463 79.8947 20.7239 74.1168 25.1869C68.3389 29.6498 60.219 26.0045 60.219 26.0045Z" fill="#6F9F3B"/>
</svg>
