<svg width="120" height="120" viewBox="0 0 120 120" fill="none" xmlns="http://www.w3.org/2000/svg">
    <path d="M9.63992 22C6.57886 28.8733 4.99799 36.3137 5 43.8379C5 74.3031 30.4029 99 61.7382 99C86.1545 99 106.908 83.9738 114.908 62.9397L9.63992 22Z" fill="#5C913B"/>
    <path d="M15.5028 24.2891C12.735 30.4381 11.3039 37.1047 11.3042 43.848C11.3042 70.9278 33.886 92.8824 61.7381 92.8824C83.5004 92.8824 101.991 79.4543 109.061 60.674L15.5028 24.2891Z" fill="#FFE8B6"/>
    <path d="M21.3626 26.5547C18.8904 31.979 17.6102 37.8704 17.6084 43.8315C17.6084 67.5291 37.3659 86.735 61.7381 86.735C80.8462 86.735 97.0733 74.9051 103.207 58.3816L21.3626 26.5547Z" fill="#EF4D3C"/>
    <path d="M33.1045 46.3022C32.1368 47.7522 30.7687 48.5339 30.0438 48.0516C29.3188 47.5694 29.5142 46.0059 30.4819 44.5559C31.4496 43.106 32.8176 42.3242 33.5426 42.8065C34.2676 43.2888 34.0722 44.8522 33.1045 46.3022ZM52.0172 49.4543C51.0495 50.9043 49.6815 51.686 48.9565 51.2038C48.2315 50.7215 48.4269 49.158 49.3946 47.7081C50.3623 46.2581 51.7303 45.4764 52.4553 45.9586C53.1803 46.4409 52.9849 48.0044 52.0172 49.4543ZM68.0363 64.2C68.1939 65.9368 67.6202 67.4025 66.7565 67.4813C65.8897 67.5601 65.0607 66.2205 64.9031 64.4836C64.7423 62.7468 65.3191 61.2811 66.1828 61.2054C67.0497 61.1235 67.8787 62.46 68.0363 64.2ZM39.6672 57.8957C39.8248 59.6325 39.2511 61.0983 38.3874 61.1771C37.5206 61.2559 36.6916 59.9162 36.534 58.1794C36.3764 56.4426 36.9501 54.9768 37.8137 54.9012C38.6837 54.8192 39.5096 56.1557 39.6672 57.8957ZM51.9636 74.747C50.9139 76.137 49.5049 76.8368 48.8115 76.3136C48.1149 75.7903 48.4049 74.2395 49.4577 72.8494C50.5073 71.4593 51.9195 70.7595 52.6098 71.2828C53.3064 71.806 53.0196 73.3537 51.9636 74.747ZM77.294 76.178C78.1546 77.6942 78.2365 79.2639 77.4832 79.6926C76.7235 80.1245 75.4154 79.2419 74.5549 77.7257C73.6943 76.2127 73.6124 74.6398 74.3689 74.2111C75.1285 73.7761 76.4335 74.6555 77.294 76.178ZM55.1756 60.3291C56.1307 61.7886 56.3167 63.3489 55.5885 63.8249C54.8604 64.304 53.4987 63.5096 52.5436 62.0534C51.5885 60.5971 51.4057 59.0336 52.1307 58.5608C52.8588 58.0754 54.2205 58.8666 55.1756 60.3291ZM83.4848 65.2906C82.4352 66.6807 81.0262 67.3804 80.3295 66.8572C79.6329 66.3339 79.9229 64.7831 80.9757 63.393C82.0254 61.9998 83.4344 61.3032 84.1278 61.8264C84.8276 62.3497 84.5408 63.8974 83.4848 65.2906Z" fill="black"/>
</svg>
